G04 Layer: TopSilkLayer*
G04 EasyEDA v6.4.19.5, 2021-06-09T19:17:38+02:00*
G04 94c66fb5ae3c4a55bd9af1bff0602b37,3a21a940fc264e4589df007fb316c5b6,10*
G04 Gerber Generator version 0.2*
G04 Scale: 100 percent, Rotated: No, Reflected: No *
G04 Dimensions in millimeters *
G04 leading zeros omitted , absolute positions ,4 integer and 5 decimal *
%FSLAX45Y45*%
%MOMM*%

%ADD10C,0.2540*%
%ADD13C,0.2032*%

%LPD*%
D13*
X5987288Y2176526D02*
G01*
X5981954Y2187447D01*
X5971031Y2198370D01*
X5960109Y2203957D01*
X5938265Y2203957D01*
X5927343Y2198370D01*
X5916422Y2187447D01*
X5910834Y2176526D01*
X5905500Y2160270D01*
X5905500Y2133092D01*
X5910834Y2116581D01*
X5916422Y2105660D01*
X5927343Y2094737D01*
X5938265Y2089404D01*
X5960109Y2089404D01*
X5971031Y2094737D01*
X5981954Y2105660D01*
X5987288Y2116581D01*
X5987288Y2133092D01*
X5960109Y2133092D02*
G01*
X5987288Y2133092D01*
X6023356Y2203957D02*
G01*
X6023356Y2089404D01*
X6023356Y2203957D02*
G01*
X6099556Y2089404D01*
X6099556Y2203957D02*
G01*
X6099556Y2089404D01*
X6135624Y2203957D02*
G01*
X6135624Y2089404D01*
X6135624Y2203957D02*
G01*
X6173977Y2203957D01*
X6190234Y2198370D01*
X6201156Y2187447D01*
X6206490Y2176526D01*
X6212077Y2160270D01*
X6212077Y2133092D01*
X6206490Y2116581D01*
X6201156Y2105660D01*
X6190234Y2094737D01*
X6173977Y2089404D01*
X6135624Y2089404D01*
X5949188Y3459226D02*
G01*
X5943854Y3470147D01*
X5932931Y3481070D01*
X5922009Y3486657D01*
X5900165Y3486657D01*
X5889243Y3481070D01*
X5878322Y3470147D01*
X5872734Y3459226D01*
X5867400Y3442970D01*
X5867400Y3415792D01*
X5872734Y3399281D01*
X5878322Y3388360D01*
X5889243Y3377437D01*
X5900165Y3372104D01*
X5922009Y3372104D01*
X5932931Y3377437D01*
X5943854Y3388360D01*
X5949188Y3399281D01*
X5949188Y3415792D01*
X5922009Y3415792D02*
G01*
X5949188Y3415792D01*
X5985256Y3486657D02*
G01*
X5985256Y3372104D01*
X5985256Y3486657D02*
G01*
X6061456Y3372104D01*
X6061456Y3486657D02*
G01*
X6061456Y3372104D01*
X6097524Y3486657D02*
G01*
X6097524Y3372104D01*
X6097524Y3486657D02*
G01*
X6135877Y3486657D01*
X6152134Y3481070D01*
X6163056Y3470147D01*
X6168390Y3459226D01*
X6173977Y3442970D01*
X6173977Y3415792D01*
X6168390Y3399281D01*
X6163056Y3388360D01*
X6152134Y3377437D01*
X6135877Y3372104D01*
X6097524Y3372104D01*
X6660388Y3675126D02*
G01*
X6655054Y3686047D01*
X6644131Y3696970D01*
X6633209Y3702557D01*
X6611365Y3702557D01*
X6600443Y3696970D01*
X6589522Y3686047D01*
X6583934Y3675126D01*
X6578600Y3658870D01*
X6578600Y3631692D01*
X6583934Y3615181D01*
X6589522Y3604260D01*
X6600443Y3593337D01*
X6611365Y3588004D01*
X6633209Y3588004D01*
X6644131Y3593337D01*
X6655054Y3604260D01*
X6660388Y3615181D01*
X6660388Y3631692D01*
X6633209Y3631692D02*
G01*
X6660388Y3631692D01*
X6696456Y3702557D02*
G01*
X6696456Y3588004D01*
X6696456Y3702557D02*
G01*
X6772656Y3588004D01*
X6772656Y3702557D02*
G01*
X6772656Y3588004D01*
X6808724Y3702557D02*
G01*
X6808724Y3588004D01*
X6808724Y3702557D02*
G01*
X6847077Y3702557D01*
X6863334Y3696970D01*
X6874256Y3686047D01*
X6879590Y3675126D01*
X6885177Y3658870D01*
X6885177Y3631692D01*
X6879590Y3615181D01*
X6874256Y3604260D01*
X6863334Y3593337D01*
X6847077Y3588004D01*
X6808724Y3588004D01*
X6406388Y449326D02*
G01*
X6401054Y460247D01*
X6390131Y471170D01*
X6379209Y476757D01*
X6357365Y476757D01*
X6346443Y471170D01*
X6335522Y460247D01*
X6329934Y449326D01*
X6324600Y433070D01*
X6324600Y405892D01*
X6329934Y389381D01*
X6335522Y378460D01*
X6346443Y367537D01*
X6357365Y362204D01*
X6379209Y362204D01*
X6390131Y367537D01*
X6401054Y378460D01*
X6406388Y389381D01*
X6406388Y405892D01*
X6379209Y405892D02*
G01*
X6406388Y405892D01*
X6442456Y476757D02*
G01*
X6442456Y362204D01*
X6442456Y476757D02*
G01*
X6518656Y362204D01*
X6518656Y476757D02*
G01*
X6518656Y362204D01*
X6554724Y476757D02*
G01*
X6554724Y362204D01*
X6554724Y476757D02*
G01*
X6593077Y476757D01*
X6609334Y471170D01*
X6620256Y460247D01*
X6625590Y449326D01*
X6631177Y433070D01*
X6631177Y405892D01*
X6625590Y389381D01*
X6620256Y378460D01*
X6609334Y367537D01*
X6593077Y362204D01*
X6554724Y362204D01*
X8915400Y451357D02*
G01*
X8915400Y336804D01*
X8915400Y451357D02*
G01*
X8959088Y336804D01*
X9002775Y451357D02*
G01*
X8959088Y336804D01*
X9002775Y451357D02*
G01*
X9002775Y336804D01*
X9071356Y451357D02*
G01*
X9060434Y445770D01*
X9049511Y434847D01*
X9044177Y423926D01*
X9038590Y407670D01*
X9038590Y380492D01*
X9044177Y363981D01*
X9049511Y353060D01*
X9060434Y342137D01*
X9071356Y336804D01*
X9093200Y336804D01*
X9104122Y342137D01*
X9115043Y353060D01*
X9120377Y363981D01*
X9125965Y380492D01*
X9125965Y407670D01*
X9120377Y423926D01*
X9115043Y434847D01*
X9104122Y445770D01*
X9093200Y451357D01*
X9071356Y451357D01*
X9162034Y451357D02*
G01*
X9162034Y336804D01*
X9162034Y451357D02*
G01*
X9200134Y451357D01*
X9216390Y445770D01*
X9227311Y434847D01*
X9232900Y423926D01*
X9238234Y407670D01*
X9238234Y380492D01*
X9232900Y363981D01*
X9227311Y353060D01*
X9216390Y342137D01*
X9200134Y336804D01*
X9162034Y336804D01*
X9307068Y451357D02*
G01*
X9296145Y445770D01*
X9285224Y434847D01*
X9279890Y423926D01*
X9274302Y407670D01*
X9274302Y380492D01*
X9279890Y363981D01*
X9285224Y353060D01*
X9296145Y342137D01*
X9307068Y336804D01*
X9328911Y336804D01*
X9339834Y342137D01*
X9350756Y353060D01*
X9356090Y363981D01*
X9361677Y380492D01*
X9361677Y407670D01*
X9356090Y423926D01*
X9350756Y434847D01*
X9339834Y445770D01*
X9328911Y451357D01*
X9307068Y451357D01*
X6692900Y1086357D02*
G01*
X6692900Y1004570D01*
X6698234Y988060D01*
X6709156Y977137D01*
X6725665Y971804D01*
X6736588Y971804D01*
X6752843Y977137D01*
X6763765Y988060D01*
X6769354Y1004570D01*
X6769354Y1086357D01*
X6805168Y1086357D02*
G01*
X6805168Y971804D01*
X6805168Y1086357D02*
G01*
X6843522Y1086357D01*
X6859777Y1080770D01*
X6870700Y1069847D01*
X6876288Y1058926D01*
X6881622Y1042670D01*
X6881622Y1015492D01*
X6876288Y998981D01*
X6870700Y988060D01*
X6859777Y977137D01*
X6843522Y971804D01*
X6805168Y971804D01*
X6917690Y1086357D02*
G01*
X6917690Y971804D01*
X6917690Y1086357D02*
G01*
X6993890Y971804D01*
X6993890Y1086357D02*
G01*
X6993890Y971804D01*
X7035545Y1058926D02*
G01*
X7035545Y1064513D01*
X7040879Y1075436D01*
X7046468Y1080770D01*
X7057390Y1086357D01*
X7078979Y1086357D01*
X7089902Y1080770D01*
X7095490Y1075436D01*
X7100824Y1064513D01*
X7100824Y1053592D01*
X7095490Y1042670D01*
X7084568Y1026413D01*
X7029958Y971804D01*
X7106411Y971804D01*
X7213345Y1048004D02*
G01*
X7207758Y1031747D01*
X7196836Y1020826D01*
X7180579Y1015492D01*
X7174991Y1015492D01*
X7158736Y1020826D01*
X7147813Y1031747D01*
X7142479Y1048004D01*
X7142479Y1053592D01*
X7147813Y1069847D01*
X7158736Y1080770D01*
X7174991Y1086357D01*
X7180579Y1086357D01*
X7196836Y1080770D01*
X7207758Y1069847D01*
X7213345Y1048004D01*
X7213345Y1020826D01*
X7207758Y993647D01*
X7196836Y977137D01*
X7180579Y971804D01*
X7169658Y971804D01*
X7153147Y977137D01*
X7147813Y988060D01*
X7276591Y1086357D02*
G01*
X7260081Y1080770D01*
X7254747Y1069847D01*
X7254747Y1058926D01*
X7260081Y1048004D01*
X7271004Y1042670D01*
X7292847Y1037081D01*
X7309358Y1031747D01*
X7320279Y1020826D01*
X7325613Y1009904D01*
X7325613Y993647D01*
X7320279Y982726D01*
X7314691Y977137D01*
X7298436Y971804D01*
X7276591Y971804D01*
X7260081Y977137D01*
X7254747Y982726D01*
X7249159Y993647D01*
X7249159Y1009904D01*
X7254747Y1020826D01*
X7265670Y1031747D01*
X7281925Y1037081D01*
X7303770Y1042670D01*
X7314691Y1048004D01*
X7320279Y1058926D01*
X7320279Y1069847D01*
X7314691Y1080770D01*
X7298436Y1086357D01*
X7276591Y1086357D01*
X7361681Y1064513D02*
G01*
X7372604Y1069847D01*
X7388859Y1086357D01*
X7388859Y971804D01*
X7333488Y2369057D02*
G01*
X7289800Y2254504D01*
X7333488Y2369057D02*
G01*
X7377175Y2254504D01*
X7306056Y2292604D02*
G01*
X7360665Y2292604D01*
X7412990Y2330704D02*
G01*
X7412990Y2254504D01*
X7412990Y2298192D02*
G01*
X7418577Y2314447D01*
X7429500Y2325370D01*
X7440422Y2330704D01*
X7456677Y2330704D01*
X7558277Y2369057D02*
G01*
X7558277Y2254504D01*
X7558277Y2314447D02*
G01*
X7547356Y2325370D01*
X7536434Y2330704D01*
X7519924Y2330704D01*
X7509002Y2325370D01*
X7498079Y2314447D01*
X7492745Y2298192D01*
X7492745Y2287270D01*
X7498079Y2270760D01*
X7509002Y2259837D01*
X7519924Y2254504D01*
X7536434Y2254504D01*
X7547356Y2259837D01*
X7558277Y2270760D01*
X7594091Y2330704D02*
G01*
X7594091Y2276347D01*
X7599679Y2259837D01*
X7610602Y2254504D01*
X7626858Y2254504D01*
X7637779Y2259837D01*
X7654290Y2276347D01*
X7654290Y2330704D02*
G01*
X7654290Y2254504D01*
X7690104Y2369057D02*
G01*
X7695691Y2363470D01*
X7701025Y2369057D01*
X7695691Y2374392D01*
X7690104Y2369057D01*
X7695691Y2330704D02*
G01*
X7695691Y2254504D01*
X7737093Y2330704D02*
G01*
X7737093Y2254504D01*
X7737093Y2309113D02*
G01*
X7753350Y2325370D01*
X7764272Y2330704D01*
X7780781Y2330704D01*
X7791704Y2325370D01*
X7797038Y2309113D01*
X7797038Y2254504D01*
X7860284Y2330704D02*
G01*
X7849361Y2325370D01*
X7838440Y2314447D01*
X7833106Y2298192D01*
X7833106Y2287270D01*
X7838440Y2270760D01*
X7849361Y2259837D01*
X7860284Y2254504D01*
X7876793Y2254504D01*
X7887715Y2259837D01*
X7898638Y2270760D01*
X7903972Y2287270D01*
X7903972Y2298192D01*
X7898638Y2314447D01*
X7887715Y2325370D01*
X7876793Y2330704D01*
X7860284Y2330704D01*
X8023859Y2369057D02*
G01*
X8023859Y2254504D01*
X8023859Y2369057D02*
G01*
X8100313Y2254504D01*
X8100313Y2369057D02*
G01*
X8100313Y2254504D01*
X8180070Y2369057D02*
G01*
X8136381Y2254504D01*
X8180070Y2369057D02*
G01*
X8223504Y2254504D01*
X8152638Y2292604D02*
G01*
X8207247Y2292604D01*
X8259572Y2369057D02*
G01*
X8259572Y2254504D01*
X8259572Y2369057D02*
G01*
X8336025Y2254504D01*
X8336025Y2369057D02*
G01*
X8336025Y2254504D01*
X8404606Y2369057D02*
G01*
X8393684Y2363470D01*
X8383015Y2352547D01*
X8377427Y2341626D01*
X8372093Y2325370D01*
X8372093Y2298192D01*
X8377427Y2281681D01*
X8383015Y2270760D01*
X8393684Y2259837D01*
X8404606Y2254504D01*
X8426450Y2254504D01*
X8437372Y2259837D01*
X8448293Y2270760D01*
X8453881Y2281681D01*
X8459215Y2298192D01*
X8459215Y2325370D01*
X8453881Y2341626D01*
X8448293Y2352547D01*
X8437372Y2363470D01*
X8426450Y2369057D01*
X8404606Y2369057D01*
X7607554Y4486147D02*
G01*
X7596631Y4497070D01*
X7580122Y4502657D01*
X7558277Y4502657D01*
X7542022Y4497070D01*
X7531100Y4486147D01*
X7531100Y4475226D01*
X7536434Y4464304D01*
X7542022Y4458970D01*
X7552943Y4453381D01*
X7585709Y4442713D01*
X7596631Y4437126D01*
X7601965Y4431792D01*
X7607554Y4420870D01*
X7607554Y4404360D01*
X7596631Y4393437D01*
X7580122Y4388104D01*
X7558277Y4388104D01*
X7542022Y4393437D01*
X7531100Y4404360D01*
X7725156Y4475226D02*
G01*
X7719822Y4486147D01*
X7708900Y4497070D01*
X7697977Y4502657D01*
X7676134Y4502657D01*
X7665211Y4497070D01*
X7654290Y4486147D01*
X7648956Y4475226D01*
X7643368Y4458970D01*
X7643368Y4431792D01*
X7648956Y4415281D01*
X7654290Y4404360D01*
X7665211Y4393437D01*
X7676134Y4388104D01*
X7697977Y4388104D01*
X7708900Y4393437D01*
X7719822Y4404360D01*
X7725156Y4415281D01*
X7761224Y4502657D02*
G01*
X7761224Y4388104D01*
X7761224Y4388104D02*
G01*
X7826756Y4388104D01*
X8509254Y4486147D02*
G01*
X8498331Y4497070D01*
X8481822Y4502657D01*
X8459977Y4502657D01*
X8443722Y4497070D01*
X8432800Y4486147D01*
X8432800Y4475226D01*
X8438134Y4464304D01*
X8443722Y4458970D01*
X8454643Y4453381D01*
X8487409Y4442713D01*
X8498331Y4437126D01*
X8503665Y4431792D01*
X8509254Y4420870D01*
X8509254Y4404360D01*
X8498331Y4393437D01*
X8481822Y4388104D01*
X8459977Y4388104D01*
X8443722Y4393437D01*
X8432800Y4404360D01*
X8545068Y4502657D02*
G01*
X8545068Y4388104D01*
X8545068Y4502657D02*
G01*
X8583422Y4502657D01*
X8599677Y4497070D01*
X8610600Y4486147D01*
X8616188Y4475226D01*
X8621522Y4458970D01*
X8621522Y4431792D01*
X8616188Y4415281D01*
X8610600Y4404360D01*
X8599677Y4393437D01*
X8583422Y4388104D01*
X8545068Y4388104D01*
X8701277Y4502657D02*
G01*
X8657590Y4388104D01*
X8701277Y4502657D02*
G01*
X8744711Y4388104D01*
X8673845Y4426204D02*
G01*
X8728456Y4426204D01*
X8037322Y4007357D02*
G01*
X8097265Y4007357D01*
X8064500Y3963670D01*
X8081009Y3963670D01*
X8091931Y3958081D01*
X8097265Y3952747D01*
X8102854Y3936492D01*
X8102854Y3925570D01*
X8097265Y3909060D01*
X8086343Y3898137D01*
X8070088Y3892804D01*
X8053577Y3892804D01*
X8037322Y3898137D01*
X8031734Y3903726D01*
X8026400Y3914647D01*
X8138668Y4007357D02*
G01*
X8138668Y3892804D01*
X8215122Y4007357D02*
G01*
X8138668Y3930904D01*
X8166100Y3958081D02*
G01*
X8215122Y3892804D01*
X8262111Y4007357D02*
G01*
X8322056Y4007357D01*
X8289290Y3963670D01*
X8305545Y3963670D01*
X8316468Y3958081D01*
X8322056Y3952747D01*
X8327390Y3936492D01*
X8327390Y3925570D01*
X8322056Y3909060D01*
X8311134Y3898137D01*
X8294877Y3892804D01*
X8278368Y3892804D01*
X8262111Y3898137D01*
X8256524Y3903726D01*
X8251190Y3914647D01*
X9528809Y3753357D02*
G01*
X9474200Y3676904D01*
X9555988Y3676904D01*
X9528809Y3753357D02*
G01*
X9528809Y3638804D01*
X9592056Y3753357D02*
G01*
X9592056Y3638804D01*
X9668256Y3753357D02*
G01*
X9592056Y3676904D01*
X9619234Y3704081D02*
G01*
X9668256Y3638804D01*
X9780777Y3753357D02*
G01*
X9726168Y3638804D01*
X9704324Y3753357D02*
G01*
X9780777Y3753357D01*
X9263634Y3217926D02*
G01*
X9263634Y3223513D01*
X9269222Y3234436D01*
X9274556Y3239770D01*
X9285477Y3245357D01*
X9307322Y3245357D01*
X9318243Y3239770D01*
X9323831Y3234436D01*
X9329165Y3223513D01*
X9329165Y3212592D01*
X9323831Y3201670D01*
X9312909Y3185413D01*
X9258300Y3130804D01*
X9334754Y3130804D01*
X9370568Y3245357D02*
G01*
X9370568Y3130804D01*
X9447022Y3245357D02*
G01*
X9370568Y3168904D01*
X9398000Y3196081D02*
G01*
X9447022Y3130804D01*
X9488424Y3217926D02*
G01*
X9488424Y3223513D01*
X9494011Y3234436D01*
X9499345Y3239770D01*
X9510268Y3245357D01*
X9532111Y3245357D01*
X9543034Y3239770D01*
X9548368Y3234436D01*
X9553956Y3223513D01*
X9553956Y3212592D01*
X9548368Y3201670D01*
X9537445Y3185413D01*
X9483090Y3130804D01*
X9559290Y3130804D01*
X8309609Y2978657D02*
G01*
X8255000Y2902204D01*
X8336788Y2902204D01*
X8309609Y2978657D02*
G01*
X8309609Y2864104D01*
X8372856Y2978657D02*
G01*
X8372856Y2864104D01*
X8449056Y2978657D02*
G01*
X8372856Y2902204D01*
X8400034Y2929381D02*
G01*
X8449056Y2864104D01*
X8561577Y2978657D02*
G01*
X8506968Y2864104D01*
X8485124Y2978657D02*
G01*
X8561577Y2978657D01*
X6545834Y3992626D02*
G01*
X6545834Y3998213D01*
X6551422Y4009136D01*
X6556756Y4014470D01*
X6567677Y4020057D01*
X6589522Y4020057D01*
X6600443Y4014470D01*
X6606031Y4009136D01*
X6611365Y3998213D01*
X6611365Y3987292D01*
X6606031Y3976370D01*
X6595109Y3960113D01*
X6540500Y3905504D01*
X6616954Y3905504D01*
X6658356Y3992626D02*
G01*
X6658356Y3998213D01*
X6663690Y4009136D01*
X6669277Y4014470D01*
X6680200Y4020057D01*
X6702043Y4020057D01*
X6712965Y4014470D01*
X6718300Y4009136D01*
X6723888Y3998213D01*
X6723888Y3987292D01*
X6718300Y3976370D01*
X6707377Y3960113D01*
X6652768Y3905504D01*
X6729222Y3905504D01*
X6798056Y4020057D02*
G01*
X6781545Y4014470D01*
X6770624Y3998213D01*
X6765290Y3970781D01*
X6765290Y3954526D01*
X6770624Y3927347D01*
X6781545Y3910837D01*
X6798056Y3905504D01*
X6808977Y3905504D01*
X6825234Y3910837D01*
X6836156Y3927347D01*
X6841490Y3954526D01*
X6841490Y3970781D01*
X6836156Y3998213D01*
X6825234Y4014470D01*
X6808977Y4020057D01*
X6798056Y4020057D01*
X6877558Y3981704D02*
G01*
X6877558Y3927347D01*
X6883145Y3910837D01*
X6894068Y3905504D01*
X6910324Y3905504D01*
X6921245Y3910837D01*
X6937502Y3927347D01*
X6937502Y3981704D02*
G01*
X6937502Y3905504D01*
X6973570Y4020057D02*
G01*
X6973570Y3905504D01*
X7050024Y4020057D02*
G01*
X7050024Y3905504D01*
X6973570Y3965447D02*
G01*
X7050024Y3965447D01*
X6507734Y2951226D02*
G01*
X6507734Y2956813D01*
X6513322Y2967736D01*
X6518656Y2973070D01*
X6529577Y2978657D01*
X6551422Y2978657D01*
X6562343Y2973070D01*
X6567931Y2967736D01*
X6573265Y2956813D01*
X6573265Y2945892D01*
X6567931Y2934970D01*
X6557009Y2918713D01*
X6502400Y2864104D01*
X6578854Y2864104D01*
X6620256Y2951226D02*
G01*
X6620256Y2956813D01*
X6625590Y2967736D01*
X6631177Y2973070D01*
X6642100Y2978657D01*
X6663943Y2978657D01*
X6674865Y2973070D01*
X6680200Y2967736D01*
X6685788Y2956813D01*
X6685788Y2945892D01*
X6680200Y2934970D01*
X6669277Y2918713D01*
X6614668Y2864104D01*
X6691122Y2864104D01*
X6759956Y2978657D02*
G01*
X6743445Y2973070D01*
X6732524Y2956813D01*
X6727190Y2929381D01*
X6727190Y2913126D01*
X6732524Y2885947D01*
X6743445Y2869437D01*
X6759956Y2864104D01*
X6770877Y2864104D01*
X6787134Y2869437D01*
X6798056Y2885947D01*
X6803390Y2913126D01*
X6803390Y2929381D01*
X6798056Y2956813D01*
X6787134Y2973070D01*
X6770877Y2978657D01*
X6759956Y2978657D01*
X6839458Y2940304D02*
G01*
X6839458Y2885947D01*
X6845045Y2869437D01*
X6855968Y2864104D01*
X6872224Y2864104D01*
X6883145Y2869437D01*
X6899402Y2885947D01*
X6899402Y2940304D02*
G01*
X6899402Y2864104D01*
X6935470Y2978657D02*
G01*
X6935470Y2864104D01*
X7011924Y2978657D02*
G01*
X7011924Y2864104D01*
X6935470Y2924047D02*
G01*
X7011924Y2924047D01*
X5880100Y3753357D02*
G01*
X5880100Y3638804D01*
X5880100Y3753357D02*
G01*
X5929122Y3753357D01*
X5945631Y3747770D01*
X5950965Y3742436D01*
X5956554Y3731513D01*
X5956554Y3720592D01*
X5950965Y3709670D01*
X5945631Y3704081D01*
X5929122Y3698747D01*
X5880100Y3698747D02*
G01*
X5929122Y3698747D01*
X5945631Y3693413D01*
X5950965Y3687826D01*
X5956554Y3676904D01*
X5956554Y3660647D01*
X5950965Y3649726D01*
X5945631Y3644137D01*
X5929122Y3638804D01*
X5880100Y3638804D01*
X6036056Y3753357D02*
G01*
X5992368Y3638804D01*
X6036056Y3753357D02*
G01*
X6079743Y3638804D01*
X6008877Y3676904D02*
G01*
X6063488Y3676904D01*
X6115811Y3753357D02*
G01*
X6115811Y3638804D01*
X6115811Y3753357D02*
G01*
X6192011Y3638804D01*
X6192011Y3753357D02*
G01*
X6192011Y3638804D01*
X6228079Y3753357D02*
G01*
X6228079Y3638804D01*
X6228079Y3753357D02*
G01*
X6266179Y3753357D01*
X6282690Y3747770D01*
X6293611Y3736847D01*
X6298945Y3725926D01*
X6304534Y3709670D01*
X6304534Y3682492D01*
X6298945Y3665981D01*
X6293611Y3655060D01*
X6282690Y3644137D01*
X6266179Y3638804D01*
X6228079Y3638804D01*
X5854700Y3245357D02*
G01*
X5854700Y3130804D01*
X5854700Y3245357D02*
G01*
X5903722Y3245357D01*
X5920231Y3239770D01*
X5925565Y3234436D01*
X5931154Y3223513D01*
X5931154Y3207004D01*
X5925565Y3196081D01*
X5920231Y3190747D01*
X5903722Y3185413D01*
X5854700Y3185413D01*
X5994400Y3207004D02*
G01*
X5983477Y3201670D01*
X5972556Y3190747D01*
X5966968Y3174492D01*
X5966968Y3163570D01*
X5972556Y3147060D01*
X5983477Y3136137D01*
X5994400Y3130804D01*
X6010656Y3130804D01*
X6021577Y3136137D01*
X6032500Y3147060D01*
X6038088Y3163570D01*
X6038088Y3174492D01*
X6032500Y3190747D01*
X6021577Y3201670D01*
X6010656Y3207004D01*
X5994400Y3207004D01*
X6073902Y3207004D02*
G01*
X6095745Y3130804D01*
X6117590Y3207004D02*
G01*
X6095745Y3130804D01*
X6117590Y3207004D02*
G01*
X6139434Y3130804D01*
X6161277Y3207004D02*
G01*
X6139434Y3130804D01*
X6197345Y3174492D02*
G01*
X6262624Y3174492D01*
X6262624Y3185413D01*
X6257290Y3196081D01*
X6251702Y3201670D01*
X6240779Y3207004D01*
X6224524Y3207004D01*
X6213602Y3201670D01*
X6202679Y3190747D01*
X6197345Y3174492D01*
X6197345Y3163570D01*
X6202679Y3147060D01*
X6213602Y3136137D01*
X6224524Y3130804D01*
X6240779Y3130804D01*
X6251702Y3136137D01*
X6262624Y3147060D01*
X6298691Y3207004D02*
G01*
X6298691Y3130804D01*
X6298691Y3174492D02*
G01*
X6304279Y3190747D01*
X6314947Y3201670D01*
X6325870Y3207004D01*
X6342379Y3207004D01*
X5983731Y2470657D02*
G01*
X5929122Y2470657D01*
X5923534Y2421381D01*
X5929122Y2426970D01*
X5945377Y2432304D01*
X5961888Y2432304D01*
X5978143Y2426970D01*
X5989065Y2416047D01*
X5994654Y2399792D01*
X5994654Y2388870D01*
X5989065Y2372360D01*
X5978143Y2361437D01*
X5961888Y2356104D01*
X5945377Y2356104D01*
X5929122Y2361437D01*
X5923534Y2367026D01*
X5918200Y2377947D01*
X6030468Y2470657D02*
G01*
X6074156Y2356104D01*
X6117843Y2470657D02*
G01*
X6074156Y2356104D01*
X6153911Y2470657D02*
G01*
X6153911Y2356104D01*
X6153911Y2470657D02*
G01*
X6192011Y2470657D01*
X6208268Y2465070D01*
X6219190Y2454147D01*
X6224777Y2443226D01*
X6230111Y2426970D01*
X6230111Y2399792D01*
X6224777Y2383281D01*
X6219190Y2372360D01*
X6208268Y2361437D01*
X6192011Y2356104D01*
X6153911Y2356104D01*
X6347968Y2443226D02*
G01*
X6342634Y2454147D01*
X6331711Y2465070D01*
X6320790Y2470657D01*
X6298945Y2470657D01*
X6288024Y2465070D01*
X6277102Y2454147D01*
X6271768Y2443226D01*
X6266179Y2426970D01*
X6266179Y2399792D01*
X6271768Y2383281D01*
X6277102Y2372360D01*
X6288024Y2361437D01*
X6298945Y2356104D01*
X6320790Y2356104D01*
X6331711Y2361437D01*
X6342634Y2372360D01*
X6347968Y2383281D01*
X6500622Y2470657D02*
G01*
X6489954Y2465070D01*
X6479031Y2454147D01*
X6473443Y2443226D01*
X6468109Y2426970D01*
X6468109Y2399792D01*
X6473443Y2383281D01*
X6479031Y2372360D01*
X6489954Y2361437D01*
X6500622Y2356104D01*
X6522465Y2356104D01*
X6533388Y2361437D01*
X6544309Y2372360D01*
X6549897Y2383281D01*
X6555231Y2399792D01*
X6555231Y2426970D01*
X6549897Y2443226D01*
X6544309Y2454147D01*
X6533388Y2465070D01*
X6522465Y2470657D01*
X6500622Y2470657D01*
X6591300Y2432304D02*
G01*
X6591300Y2377947D01*
X6596634Y2361437D01*
X6607556Y2356104D01*
X6624065Y2356104D01*
X6634988Y2361437D01*
X6651243Y2377947D01*
X6651243Y2432304D02*
G01*
X6651243Y2356104D01*
X6703568Y2470657D02*
G01*
X6703568Y2377947D01*
X6709156Y2361437D01*
X6720077Y2356104D01*
X6731000Y2356104D01*
X6687311Y2432304D02*
G01*
X6725411Y2432304D01*
X7988300Y451357D02*
G01*
X7988300Y336804D01*
X7988300Y451357D02*
G01*
X8037322Y451357D01*
X8053831Y445770D01*
X8059165Y440436D01*
X8064754Y429513D01*
X8064754Y418592D01*
X8059165Y407670D01*
X8053831Y402081D01*
X8037322Y396747D01*
X7988300Y396747D01*
X8026400Y396747D02*
G01*
X8064754Y336804D01*
X8100568Y451357D02*
G01*
X8100568Y336804D01*
X8100568Y451357D02*
G01*
X8171688Y451357D01*
X8100568Y396747D02*
G01*
X8144256Y396747D01*
X8100568Y336804D02*
G01*
X8171688Y336804D01*
X8207502Y451357D02*
G01*
X8207502Y336804D01*
X8207502Y336804D02*
G01*
X8273034Y336804D01*
X8309102Y451357D02*
G01*
X8309102Y336804D01*
X8309102Y451357D02*
G01*
X8379968Y451357D01*
X8309102Y396747D02*
G01*
X8352790Y396747D01*
X8309102Y336804D02*
G01*
X8379968Y336804D01*
X8492236Y434847D02*
G01*
X8481313Y445770D01*
X8465058Y451357D01*
X8443213Y451357D01*
X8426958Y445770D01*
X8416036Y434847D01*
X8416036Y423926D01*
X8421370Y413004D01*
X8426958Y407670D01*
X8437879Y402081D01*
X8470391Y391413D01*
X8481313Y385826D01*
X8486902Y380492D01*
X8492236Y369570D01*
X8492236Y353060D01*
X8481313Y342137D01*
X8465058Y336804D01*
X8443213Y336804D01*
X8426958Y342137D01*
X8416036Y353060D01*
X6007100Y1445513D02*
G01*
X6018022Y1450847D01*
X6034277Y1467357D01*
X6034277Y1352804D01*
X6075934Y1439926D02*
G01*
X6075934Y1445513D01*
X6081268Y1456436D01*
X6086856Y1461770D01*
X6097524Y1467357D01*
X6119368Y1467357D01*
X6130290Y1461770D01*
X6135877Y1456436D01*
X6141211Y1445513D01*
X6141211Y1434592D01*
X6135877Y1423670D01*
X6124956Y1407413D01*
X6070345Y1352804D01*
X6146800Y1352804D01*
X6182613Y1467357D02*
G01*
X6226302Y1352804D01*
X6269990Y1467357D02*
G01*
X6226302Y1352804D01*
X9316465Y2178304D02*
G01*
X9311131Y2162047D01*
X9300209Y2151126D01*
X9283700Y2145792D01*
X9278365Y2145792D01*
X9261856Y2151126D01*
X9250934Y2162047D01*
X9245600Y2178304D01*
X9245600Y2183892D01*
X9250934Y2200147D01*
X9261856Y2211070D01*
X9278365Y2216657D01*
X9283700Y2216657D01*
X9300209Y2211070D01*
X9311131Y2200147D01*
X9316465Y2178304D01*
X9316465Y2151126D01*
X9311131Y2123947D01*
X9300209Y2107437D01*
X9283700Y2102104D01*
X9272777Y2102104D01*
X9256522Y2107437D01*
X9250934Y2118360D01*
X8549131Y2174747D02*
G01*
X8543543Y2185670D01*
X8527288Y2191257D01*
X8516365Y2191257D01*
X8499856Y2185670D01*
X8488934Y2169413D01*
X8483600Y2141981D01*
X8483600Y2114804D01*
X8488934Y2092960D01*
X8499856Y2082037D01*
X8516365Y2076704D01*
X8521700Y2076704D01*
X8538209Y2082037D01*
X8549131Y2092960D01*
X8554465Y2109470D01*
X8554465Y2114804D01*
X8549131Y2131313D01*
X8538209Y2141981D01*
X8521700Y2147570D01*
X8516365Y2147570D01*
X8499856Y2141981D01*
X8488934Y2131313D01*
X8483600Y2114804D01*
X8295131Y2178557D02*
G01*
X8240522Y2178557D01*
X8234934Y2129281D01*
X8240522Y2134870D01*
X8256777Y2140204D01*
X8273288Y2140204D01*
X8289543Y2134870D01*
X8300465Y2123947D01*
X8306054Y2107692D01*
X8306054Y2096770D01*
X8300465Y2080260D01*
X8289543Y2069337D01*
X8273288Y2064004D01*
X8256777Y2064004D01*
X8240522Y2069337D01*
X8234934Y2074926D01*
X8229600Y2085847D01*
X5987288Y1020826D02*
G01*
X5981954Y1031747D01*
X5971031Y1042670D01*
X5960109Y1048257D01*
X5938265Y1048257D01*
X5927343Y1042670D01*
X5916422Y1031747D01*
X5910834Y1020826D01*
X5905500Y1004570D01*
X5905500Y977392D01*
X5910834Y960881D01*
X5916422Y949960D01*
X5927343Y939037D01*
X5938265Y933704D01*
X5960109Y933704D01*
X5971031Y939037D01*
X5981954Y949960D01*
X5987288Y960881D01*
X5987288Y977392D01*
X5960109Y977392D02*
G01*
X5987288Y977392D01*
X6023356Y1048257D02*
G01*
X6023356Y933704D01*
X6023356Y1048257D02*
G01*
X6099556Y933704D01*
X6099556Y1048257D02*
G01*
X6099556Y933704D01*
X6135624Y1048257D02*
G01*
X6135624Y933704D01*
X6135624Y1048257D02*
G01*
X6173977Y1048257D01*
X6190234Y1042670D01*
X6201156Y1031747D01*
X6206490Y1020826D01*
X6212077Y1004570D01*
X6212077Y977392D01*
X6206490Y960881D01*
X6201156Y949960D01*
X6190234Y939037D01*
X6173977Y933704D01*
X6135624Y933704D01*
X5905500Y1267713D02*
G01*
X5916422Y1273047D01*
X5932677Y1289557D01*
X5932677Y1175004D01*
X5979668Y1289557D02*
G01*
X6039611Y1289557D01*
X6006845Y1245870D01*
X6023356Y1245870D01*
X6034277Y1240281D01*
X6039611Y1234947D01*
X6045200Y1218692D01*
X6045200Y1207770D01*
X6039611Y1191260D01*
X6028690Y1180337D01*
X6012434Y1175004D01*
X5995924Y1175004D01*
X5979668Y1180337D01*
X5974334Y1185926D01*
X5968745Y1196847D01*
X6086602Y1202181D02*
G01*
X6081013Y1196847D01*
X6086602Y1191260D01*
X6091936Y1196847D01*
X6086602Y1202181D01*
X6155436Y1289557D02*
G01*
X6138925Y1283970D01*
X6133591Y1273047D01*
X6133591Y1262126D01*
X6138925Y1251204D01*
X6149847Y1245870D01*
X6171691Y1240281D01*
X6187947Y1234947D01*
X6198870Y1224026D01*
X6204458Y1213104D01*
X6204458Y1196847D01*
X6198870Y1185926D01*
X6193536Y1180337D01*
X6177025Y1175004D01*
X6155436Y1175004D01*
X6138925Y1180337D01*
X6133591Y1185926D01*
X6128004Y1196847D01*
X6128004Y1213104D01*
X6133591Y1224026D01*
X6144513Y1234947D01*
X6160770Y1240281D01*
X6182613Y1245870D01*
X6193536Y1251204D01*
X6198870Y1262126D01*
X6198870Y1273047D01*
X6193536Y1283970D01*
X6177025Y1289557D01*
X6155436Y1289557D01*
X6240525Y1289557D02*
G01*
X6283959Y1175004D01*
X6327647Y1289557D02*
G01*
X6283959Y1175004D01*
D10*
G75*
G01
X8562696Y1160272D02*
G03X8562696Y1160272I-43840J0D01*
M02*
