G04 Layer: BottomLayer*
G04 EasyEDA v6.4.19.5, 2021-06-09T19:17:38+02:00*
G04 94c66fb5ae3c4a55bd9af1bff0602b37,3a21a940fc264e4589df007fb316c5b6,10*
G04 Gerber Generator version 0.2*
G04 Scale: 100 percent, Rotated: No, Reflected: No *
G04 Dimensions in millimeters *
G04 leading zeros omitted , absolute positions ,4 integer and 5 decimal *
%FSLAX45Y45*%
%MOMM*%

%ADD12C,0.8000*%

%LPD*%
G36*
X5446014Y10464D02*
G01*
X5442102Y11226D01*
X5438851Y13411D01*
X5436616Y16713D01*
X5435854Y20624D01*
X5435854Y1812747D01*
X5436616Y1816658D01*
X5438851Y1819960D01*
X5442102Y1822145D01*
X5446014Y1822907D01*
X5449925Y1822145D01*
X5453176Y1819960D01*
X5884062Y1389075D01*
X5886297Y1385773D01*
X5887059Y1381861D01*
X5886297Y1378000D01*
X5884062Y1374698D01*
X5842609Y1333195D01*
X5839612Y1331163D01*
X5836107Y1330248D01*
X5832500Y1330655D01*
X5829249Y1332331D01*
X5826810Y1334973D01*
X5824982Y1337868D01*
X5820968Y1341882D01*
X5816092Y1344930D01*
X5810707Y1346860D01*
X5804408Y1347571D01*
X5625592Y1347571D01*
X5619292Y1346860D01*
X5613908Y1344930D01*
X5609031Y1341882D01*
X5605018Y1337868D01*
X5601970Y1332992D01*
X5600039Y1327607D01*
X5599328Y1321308D01*
X5599328Y1142492D01*
X5600039Y1136192D01*
X5601970Y1130808D01*
X5605018Y1125931D01*
X5609031Y1121918D01*
X5612282Y1119835D01*
X5615228Y1117041D01*
X5616854Y1113282D01*
X5616854Y1109218D01*
X5615228Y1105458D01*
X5612282Y1102664D01*
X5609031Y1100582D01*
X5605018Y1096568D01*
X5601970Y1091692D01*
X5600039Y1086307D01*
X5599328Y1080008D01*
X5599328Y1041958D01*
X5663641Y1041958D01*
X5663641Y1106068D01*
X5664403Y1109980D01*
X5666638Y1113282D01*
X5669940Y1115466D01*
X5673801Y1116228D01*
X5756198Y1116228D01*
X5760059Y1115466D01*
X5763361Y1113282D01*
X5765596Y1109980D01*
X5766358Y1106068D01*
X5766358Y1041958D01*
X5830671Y1041958D01*
X5830671Y1080008D01*
X5829960Y1086307D01*
X5828080Y1091692D01*
X5824982Y1096568D01*
X5820968Y1100582D01*
X5817717Y1102664D01*
X5814771Y1105458D01*
X5813145Y1109218D01*
X5813145Y1113282D01*
X5814771Y1117041D01*
X5817717Y1119835D01*
X5820968Y1121918D01*
X5824982Y1125931D01*
X5828080Y1130808D01*
X5829960Y1136192D01*
X5830671Y1142492D01*
X5830671Y1156614D01*
X5831332Y1160322D01*
X5833364Y1163523D01*
X5836361Y1165758D01*
X5840018Y1166723D01*
X5844387Y1167079D01*
X5854395Y1169466D01*
X5863894Y1173429D01*
X5872683Y1178814D01*
X5880811Y1185773D01*
X6023457Y1328369D01*
X6026759Y1330553D01*
X6030620Y1331366D01*
X6351168Y1331366D01*
X6355080Y1330553D01*
X6358382Y1328369D01*
X6360566Y1325067D01*
X6361328Y1321206D01*
X6361328Y1307592D01*
X6362039Y1301292D01*
X6363970Y1295908D01*
X6367018Y1291031D01*
X6371031Y1287018D01*
X6375908Y1283919D01*
X6381292Y1282039D01*
X6387592Y1281328D01*
X6566408Y1281328D01*
X6572707Y1282039D01*
X6578092Y1283919D01*
X6582968Y1287018D01*
X6586981Y1291031D01*
X6590080Y1295908D01*
X6591960Y1301292D01*
X6592671Y1307592D01*
X6592671Y1486408D01*
X6591960Y1492707D01*
X6590080Y1498092D01*
X6586981Y1502968D01*
X6582968Y1506982D01*
X6578092Y1510030D01*
X6572707Y1511960D01*
X6566408Y1512671D01*
X6387592Y1512671D01*
X6381292Y1511960D01*
X6375908Y1510030D01*
X6371031Y1506982D01*
X6367018Y1502968D01*
X6363970Y1498092D01*
X6362039Y1492707D01*
X6361328Y1486408D01*
X6361328Y1472793D01*
X6360566Y1468932D01*
X6358382Y1465630D01*
X6355080Y1463446D01*
X6351168Y1462633D01*
X6000394Y1462633D01*
X5996533Y1463446D01*
X5993231Y1465630D01*
X5529630Y1929231D01*
X5527446Y1932533D01*
X5526633Y1936394D01*
X5526633Y2591206D01*
X5527446Y2595067D01*
X5529630Y2598369D01*
X5532932Y2600553D01*
X5536793Y2601366D01*
X6476593Y2601366D01*
X6487261Y2602179D01*
X6497269Y2604566D01*
X6506768Y2608529D01*
X6515557Y2613914D01*
X6523380Y2620619D01*
X6530085Y2628442D01*
X6535470Y2637231D01*
X6539433Y2646730D01*
X6541820Y2656738D01*
X6542633Y2667406D01*
X6542633Y3303168D01*
X6543446Y3307079D01*
X6545630Y3310382D01*
X6548932Y3312566D01*
X6552793Y3313328D01*
X6566408Y3313328D01*
X6572707Y3314039D01*
X6578092Y3315919D01*
X6582968Y3319018D01*
X6586981Y3323031D01*
X6590080Y3327908D01*
X6591960Y3333292D01*
X6592671Y3339592D01*
X6592671Y3518408D01*
X6591960Y3524707D01*
X6590080Y3530092D01*
X6586981Y3534968D01*
X6582968Y3538982D01*
X6578092Y3542029D01*
X6572707Y3543960D01*
X6566408Y3544671D01*
X6387592Y3544671D01*
X6381292Y3543960D01*
X6375908Y3542029D01*
X6371031Y3538982D01*
X6367018Y3534968D01*
X6363970Y3530092D01*
X6362039Y3524707D01*
X6361328Y3518408D01*
X6361328Y3339592D01*
X6362039Y3333292D01*
X6363970Y3327908D01*
X6367018Y3323031D01*
X6371031Y3319018D01*
X6375908Y3315919D01*
X6381292Y3314039D01*
X6387592Y3313328D01*
X6401206Y3313328D01*
X6405067Y3312566D01*
X6408369Y3310382D01*
X6410553Y3307079D01*
X6411366Y3303168D01*
X6411366Y2742793D01*
X6410553Y2738932D01*
X6408369Y2735630D01*
X6405067Y2733446D01*
X6401206Y2732633D01*
X5461406Y2732633D01*
X5450738Y2731820D01*
X5448401Y2731262D01*
X5444744Y2731058D01*
X5441238Y2732125D01*
X5438394Y2734411D01*
X5436514Y2737561D01*
X5435854Y2741117D01*
X5435854Y4548886D01*
X5436616Y4552797D01*
X5438851Y4556048D01*
X5442102Y4558284D01*
X5446014Y4559046D01*
X7878165Y4559046D01*
X7881924Y4558334D01*
X7885175Y4556252D01*
X7887411Y4553102D01*
X7888325Y4549343D01*
X7887766Y4545533D01*
X7886039Y4540707D01*
X7885328Y4534408D01*
X7885328Y4355592D01*
X7886039Y4349292D01*
X7887970Y4343908D01*
X7891018Y4339031D01*
X7895031Y4335018D01*
X7899908Y4331919D01*
X7905292Y4330039D01*
X7911592Y4329328D01*
X7925206Y4329328D01*
X7929067Y4328566D01*
X7932369Y4326382D01*
X7934553Y4323080D01*
X7935366Y4319168D01*
X7935366Y3554831D01*
X7934553Y3550920D01*
X7932369Y3547618D01*
X7929067Y3545433D01*
X7925206Y3544671D01*
X7911592Y3544671D01*
X7905292Y3543960D01*
X7899908Y3542029D01*
X7895031Y3538982D01*
X7891018Y3534968D01*
X7887970Y3530092D01*
X7886039Y3524707D01*
X7885328Y3518408D01*
X7885328Y3339592D01*
X7886039Y3333292D01*
X7887970Y3327908D01*
X7891018Y3323031D01*
X7895031Y3319018D01*
X7899908Y3315919D01*
X7905292Y3314039D01*
X7911592Y3313328D01*
X8090408Y3313328D01*
X8096707Y3314039D01*
X8102092Y3315919D01*
X8106968Y3319018D01*
X8110981Y3323031D01*
X8114080Y3327908D01*
X8115960Y3333292D01*
X8116671Y3339592D01*
X8116671Y3518408D01*
X8115960Y3524707D01*
X8114080Y3530092D01*
X8110981Y3534968D01*
X8106968Y3538982D01*
X8102092Y3542029D01*
X8096707Y3543960D01*
X8090408Y3544671D01*
X8076793Y3544671D01*
X8072932Y3545433D01*
X8069630Y3547618D01*
X8067446Y3550920D01*
X8066633Y3554831D01*
X8066633Y4319168D01*
X8067446Y4323080D01*
X8069630Y4326382D01*
X8072932Y4328566D01*
X8076793Y4329328D01*
X8090408Y4329328D01*
X8096707Y4330039D01*
X8102092Y4331919D01*
X8106968Y4335018D01*
X8110981Y4339031D01*
X8114080Y4343908D01*
X8115960Y4349292D01*
X8116671Y4355592D01*
X8116671Y4534408D01*
X8115960Y4540707D01*
X8114233Y4545533D01*
X8113674Y4549343D01*
X8114588Y4553102D01*
X8116824Y4556252D01*
X8120075Y4558334D01*
X8123834Y4559046D01*
X8132165Y4559046D01*
X8135924Y4558334D01*
X8139175Y4556252D01*
X8141411Y4553102D01*
X8142325Y4549343D01*
X8141766Y4545533D01*
X8140039Y4540707D01*
X8139328Y4534408D01*
X8139328Y4355592D01*
X8140039Y4349292D01*
X8141970Y4343908D01*
X8145018Y4339031D01*
X8149031Y4335018D01*
X8153908Y4331919D01*
X8159292Y4330039D01*
X8165592Y4329328D01*
X8179206Y4329328D01*
X8183067Y4328566D01*
X8186369Y4326382D01*
X8188553Y4323080D01*
X8189366Y4319168D01*
X8189366Y3554831D01*
X8188553Y3550920D01*
X8186369Y3547618D01*
X8183067Y3545433D01*
X8179206Y3544671D01*
X8165592Y3544671D01*
X8159292Y3543960D01*
X8153908Y3542029D01*
X8149031Y3538982D01*
X8145018Y3534968D01*
X8141970Y3530092D01*
X8140039Y3524707D01*
X8139328Y3518408D01*
X8139328Y3339592D01*
X8140039Y3333292D01*
X8141970Y3327908D01*
X8145018Y3323031D01*
X8149031Y3319018D01*
X8153908Y3315919D01*
X8159292Y3314039D01*
X8165592Y3313328D01*
X8344408Y3313328D01*
X8350707Y3314039D01*
X8356092Y3315919D01*
X8360968Y3319018D01*
X8364981Y3323031D01*
X8368080Y3327908D01*
X8369960Y3333292D01*
X8370671Y3339592D01*
X8370671Y3518408D01*
X8369960Y3524707D01*
X8368080Y3530092D01*
X8364981Y3534968D01*
X8360968Y3538982D01*
X8356092Y3542029D01*
X8350707Y3543960D01*
X8344408Y3544671D01*
X8330793Y3544671D01*
X8326932Y3545433D01*
X8323630Y3547618D01*
X8321446Y3550920D01*
X8320633Y3554831D01*
X8320633Y4319168D01*
X8321446Y4323080D01*
X8323630Y4326382D01*
X8326932Y4328566D01*
X8330793Y4329328D01*
X8344408Y4329328D01*
X8350707Y4330039D01*
X8356092Y4331919D01*
X8360968Y4335018D01*
X8364981Y4339031D01*
X8368080Y4343908D01*
X8369960Y4349292D01*
X8370671Y4355592D01*
X8370671Y4534408D01*
X8369960Y4540707D01*
X8368233Y4545533D01*
X8367674Y4549343D01*
X8368588Y4553102D01*
X8370824Y4556252D01*
X8374075Y4558334D01*
X8377834Y4559046D01*
X10136886Y4559046D01*
X10140797Y4558284D01*
X10144048Y4556048D01*
X10146284Y4552797D01*
X10147046Y4548886D01*
X10147046Y3805834D01*
X10146334Y3802075D01*
X10144252Y3798824D01*
X10141102Y3796588D01*
X10137343Y3795674D01*
X10133533Y3796233D01*
X10128707Y3797960D01*
X10122408Y3798671D01*
X10084358Y3798671D01*
X10084358Y3734358D01*
X10136886Y3734358D01*
X10140797Y3733596D01*
X10144048Y3731361D01*
X10146284Y3728059D01*
X10147046Y3724198D01*
X10147046Y3641801D01*
X10146284Y3637940D01*
X10144048Y3634638D01*
X10140797Y3632403D01*
X10136886Y3631641D01*
X10084358Y3631641D01*
X10084358Y3567328D01*
X10122408Y3567328D01*
X10128707Y3568039D01*
X10133533Y3569766D01*
X10137343Y3570325D01*
X10141102Y3569411D01*
X10144252Y3567176D01*
X10146334Y3563924D01*
X10147046Y3560165D01*
X10147046Y3551834D01*
X10146334Y3548075D01*
X10144252Y3544824D01*
X10141102Y3542588D01*
X10137343Y3541674D01*
X10133533Y3542233D01*
X10128707Y3543960D01*
X10122408Y3544671D01*
X9943592Y3544671D01*
X9937292Y3543960D01*
X9931908Y3542029D01*
X9927031Y3538982D01*
X9923018Y3534968D01*
X9919970Y3530092D01*
X9918039Y3524707D01*
X9917328Y3518408D01*
X9917328Y3339592D01*
X9918039Y3333292D01*
X9919970Y3327908D01*
X9923018Y3323031D01*
X9927031Y3319018D01*
X9931908Y3315919D01*
X9937292Y3314039D01*
X9943592Y3313328D01*
X10122408Y3313328D01*
X10128707Y3314039D01*
X10133533Y3315766D01*
X10137343Y3316325D01*
X10141102Y3315411D01*
X10144252Y3313176D01*
X10146334Y3309924D01*
X10147046Y3306165D01*
X10147046Y2027834D01*
X10146334Y2024075D01*
X10144252Y2020824D01*
X10141102Y2018588D01*
X10137343Y2017674D01*
X10133533Y2018233D01*
X10128707Y2019960D01*
X10122408Y2020671D01*
X9943592Y2020671D01*
X9937292Y2019960D01*
X9931908Y2018030D01*
X9927031Y2014982D01*
X9923018Y2010968D01*
X9919970Y2006092D01*
X9918039Y2000707D01*
X9917328Y1994407D01*
X9917328Y1815592D01*
X9918039Y1809292D01*
X9919970Y1803907D01*
X9923018Y1799031D01*
X9927031Y1795018D01*
X9931908Y1791919D01*
X9937292Y1790039D01*
X9943592Y1789328D01*
X10122408Y1789328D01*
X10128707Y1790039D01*
X10133533Y1791766D01*
X10137343Y1792325D01*
X10141102Y1791411D01*
X10144252Y1789175D01*
X10146334Y1785924D01*
X10147046Y1782165D01*
X10147046Y20624D01*
X10146284Y16713D01*
X10144048Y13411D01*
X10140797Y11226D01*
X10136886Y10464D01*
X9392716Y10464D01*
X9388551Y11328D01*
X9385147Y13868D01*
X9383014Y17627D01*
X9382658Y21844D01*
X9385960Y31292D01*
X9386671Y37592D01*
X9386671Y216408D01*
X9385960Y222707D01*
X9384080Y228092D01*
X9380982Y232968D01*
X9376968Y236982D01*
X9372092Y240029D01*
X9366707Y241960D01*
X9360408Y242671D01*
X9346793Y242671D01*
X9342932Y243433D01*
X9339630Y245617D01*
X9337446Y248920D01*
X9336633Y252831D01*
X9336633Y1779168D01*
X9337446Y1783080D01*
X9339630Y1786382D01*
X9342932Y1788566D01*
X9346793Y1789328D01*
X9360408Y1789328D01*
X9366707Y1790039D01*
X9372092Y1791919D01*
X9376968Y1795018D01*
X9380982Y1799031D01*
X9384080Y1803907D01*
X9385960Y1809292D01*
X9386671Y1815592D01*
X9386671Y1994407D01*
X9385960Y2000707D01*
X9384080Y2006092D01*
X9380982Y2010968D01*
X9376968Y2014982D01*
X9372092Y2018030D01*
X9366707Y2019960D01*
X9360408Y2020671D01*
X9181592Y2020671D01*
X9175292Y2019960D01*
X9169908Y2018030D01*
X9165031Y2014982D01*
X9161018Y2010968D01*
X9157970Y2006092D01*
X9156039Y2000707D01*
X9155328Y1994407D01*
X9155328Y1815592D01*
X9156039Y1809292D01*
X9157970Y1803907D01*
X9161018Y1799031D01*
X9165031Y1795018D01*
X9169908Y1791919D01*
X9175292Y1790039D01*
X9181592Y1789328D01*
X9195206Y1789328D01*
X9199067Y1788566D01*
X9202369Y1786382D01*
X9204553Y1783080D01*
X9205366Y1779168D01*
X9205366Y252831D01*
X9204553Y248920D01*
X9202369Y245617D01*
X9199067Y243433D01*
X9195206Y242671D01*
X9181592Y242671D01*
X9175292Y241960D01*
X9169908Y240029D01*
X9165031Y236982D01*
X9161018Y232968D01*
X9157970Y228092D01*
X9156039Y222707D01*
X9155328Y216408D01*
X9155328Y37592D01*
X9156039Y31292D01*
X9159341Y21844D01*
X9158986Y17627D01*
X9156852Y13868D01*
X9153448Y11328D01*
X9149283Y10464D01*
X9138716Y10464D01*
X9134551Y11328D01*
X9131147Y13868D01*
X9129014Y17627D01*
X9128658Y21844D01*
X9131960Y31292D01*
X9132671Y37592D01*
X9132671Y75641D01*
X9068358Y75641D01*
X9068358Y20624D01*
X9067596Y16713D01*
X9065361Y13411D01*
X9062059Y11226D01*
X9058198Y10464D01*
X8975801Y10464D01*
X8971940Y11226D01*
X8968638Y13411D01*
X8966403Y16713D01*
X8965641Y20624D01*
X8965641Y75641D01*
X8901328Y75641D01*
X8901328Y37592D01*
X8902039Y31292D01*
X8905341Y21844D01*
X8904986Y17627D01*
X8902852Y13868D01*
X8899448Y11328D01*
X8895283Y10464D01*
X8630716Y10464D01*
X8626551Y11328D01*
X8623147Y13868D01*
X8621014Y17627D01*
X8620658Y21844D01*
X8623960Y31292D01*
X8624671Y37592D01*
X8624671Y216408D01*
X8623960Y222707D01*
X8622080Y228092D01*
X8618982Y232968D01*
X8614968Y236982D01*
X8610092Y240029D01*
X8604707Y241960D01*
X8598408Y242671D01*
X8584793Y242671D01*
X8580932Y243433D01*
X8577630Y245617D01*
X8575446Y248920D01*
X8574633Y252831D01*
X8574633Y509168D01*
X8575446Y513080D01*
X8577630Y516382D01*
X8580932Y518566D01*
X8584793Y519328D01*
X8598408Y519328D01*
X8604707Y520039D01*
X8610092Y521919D01*
X8614968Y525018D01*
X8618982Y529031D01*
X8622080Y533908D01*
X8623960Y539292D01*
X8624671Y545592D01*
X8624671Y724408D01*
X8623960Y730707D01*
X8622080Y736092D01*
X8618982Y740968D01*
X8614968Y744982D01*
X8610092Y748030D01*
X8604707Y749960D01*
X8598408Y750671D01*
X8419592Y750671D01*
X8413292Y749960D01*
X8407908Y748030D01*
X8403031Y744982D01*
X8399018Y740968D01*
X8395970Y736092D01*
X8394039Y730707D01*
X8393328Y724408D01*
X8393328Y545592D01*
X8394039Y539292D01*
X8395970Y533908D01*
X8399018Y529031D01*
X8403031Y525018D01*
X8407908Y521919D01*
X8413292Y520039D01*
X8419592Y519328D01*
X8433206Y519328D01*
X8437067Y518566D01*
X8440369Y516382D01*
X8442553Y513080D01*
X8443366Y509168D01*
X8443366Y252831D01*
X8442553Y248920D01*
X8440369Y245617D01*
X8437067Y243433D01*
X8433206Y242671D01*
X8419592Y242671D01*
X8413292Y241960D01*
X8407908Y240029D01*
X8403031Y236982D01*
X8399018Y232968D01*
X8395970Y228092D01*
X8394039Y222707D01*
X8393328Y216408D01*
X8393328Y37592D01*
X8394039Y31292D01*
X8397341Y21844D01*
X8396986Y17627D01*
X8394852Y13868D01*
X8391448Y11328D01*
X8387283Y10464D01*
X8376716Y10464D01*
X8372551Y11328D01*
X8369147Y13868D01*
X8367014Y17627D01*
X8366658Y21844D01*
X8369960Y31292D01*
X8370671Y37592D01*
X8370671Y216408D01*
X8369960Y222707D01*
X8368080Y228092D01*
X8364981Y232968D01*
X8360968Y236982D01*
X8356092Y240029D01*
X8350707Y241960D01*
X8344408Y242671D01*
X8330793Y242671D01*
X8326932Y243433D01*
X8323630Y245617D01*
X8321446Y248920D01*
X8320633Y252831D01*
X8320633Y509168D01*
X8321446Y513080D01*
X8323630Y516382D01*
X8326932Y518566D01*
X8330793Y519328D01*
X8344408Y519328D01*
X8350707Y520039D01*
X8356092Y521919D01*
X8360968Y525018D01*
X8364981Y529031D01*
X8368080Y533908D01*
X8369960Y539292D01*
X8370671Y545592D01*
X8370671Y724408D01*
X8369960Y730707D01*
X8368080Y736092D01*
X8364981Y740968D01*
X8360968Y744982D01*
X8356092Y748030D01*
X8350707Y749960D01*
X8344408Y750671D01*
X8165592Y750671D01*
X8159292Y749960D01*
X8153908Y748030D01*
X8149031Y744982D01*
X8145018Y740968D01*
X8141970Y736092D01*
X8140039Y730707D01*
X8139328Y724408D01*
X8139328Y545592D01*
X8140039Y539292D01*
X8141970Y533908D01*
X8145018Y529031D01*
X8149031Y525018D01*
X8153908Y521919D01*
X8159292Y520039D01*
X8165592Y519328D01*
X8179206Y519328D01*
X8183067Y518566D01*
X8186369Y516382D01*
X8188553Y513080D01*
X8189366Y509168D01*
X8189366Y252831D01*
X8188553Y248920D01*
X8186369Y245617D01*
X8183067Y243433D01*
X8179206Y242671D01*
X8165592Y242671D01*
X8159292Y241960D01*
X8153908Y240029D01*
X8149031Y236982D01*
X8145018Y232968D01*
X8141970Y228092D01*
X8140039Y222707D01*
X8139328Y216408D01*
X8139328Y37592D01*
X8140039Y31292D01*
X8143341Y21844D01*
X8142986Y17627D01*
X8140852Y13868D01*
X8137448Y11328D01*
X8133283Y10464D01*
X8122716Y10464D01*
X8118551Y11328D01*
X8115147Y13868D01*
X8113014Y17627D01*
X8112658Y21844D01*
X8115960Y31292D01*
X8116671Y37592D01*
X8116671Y216408D01*
X8115960Y222707D01*
X8114080Y228092D01*
X8110981Y232968D01*
X8106968Y236982D01*
X8102092Y240029D01*
X8096707Y241960D01*
X8090408Y242671D01*
X8076793Y242671D01*
X8072932Y243433D01*
X8069630Y245617D01*
X8067446Y248920D01*
X8066633Y252831D01*
X8066633Y496468D01*
X8067446Y500380D01*
X8069630Y503682D01*
X8072932Y505866D01*
X8076793Y506628D01*
X8090408Y506628D01*
X8096707Y507339D01*
X8102092Y509219D01*
X8106968Y512318D01*
X8110981Y516331D01*
X8114080Y521208D01*
X8115960Y526592D01*
X8116671Y532892D01*
X8116671Y711708D01*
X8115960Y718007D01*
X8114080Y723392D01*
X8110981Y728268D01*
X8106968Y732282D01*
X8102092Y735330D01*
X8096707Y737260D01*
X8090408Y737971D01*
X7911592Y737971D01*
X7905292Y737260D01*
X7899908Y735330D01*
X7895031Y732282D01*
X7891018Y728268D01*
X7887970Y723392D01*
X7886039Y718007D01*
X7885328Y711708D01*
X7885328Y532892D01*
X7886039Y526592D01*
X7887970Y521208D01*
X7891018Y516331D01*
X7895031Y512318D01*
X7899908Y509219D01*
X7905292Y507339D01*
X7911592Y506628D01*
X7925206Y506628D01*
X7929067Y505866D01*
X7932369Y503682D01*
X7934553Y500380D01*
X7935366Y496468D01*
X7935366Y252831D01*
X7934553Y248920D01*
X7932369Y245617D01*
X7929067Y243433D01*
X7925206Y242671D01*
X7911592Y242671D01*
X7905292Y241960D01*
X7899908Y240029D01*
X7895031Y236982D01*
X7891018Y232968D01*
X7887970Y228092D01*
X7886039Y222707D01*
X7885328Y216408D01*
X7885328Y37592D01*
X7886039Y31292D01*
X7889341Y21844D01*
X7888986Y17627D01*
X7886852Y13868D01*
X7883448Y11328D01*
X7879283Y10464D01*
X7868716Y10464D01*
X7864551Y11328D01*
X7861147Y13868D01*
X7859014Y17627D01*
X7858658Y21844D01*
X7861960Y31292D01*
X7862671Y37592D01*
X7862671Y216408D01*
X7861960Y222707D01*
X7860080Y228092D01*
X7856981Y232968D01*
X7852968Y236982D01*
X7848092Y240029D01*
X7842707Y241960D01*
X7836408Y242671D01*
X7822793Y242671D01*
X7818932Y243433D01*
X7815630Y245617D01*
X7813446Y248920D01*
X7812633Y252831D01*
X7812633Y509168D01*
X7813446Y513080D01*
X7815630Y516382D01*
X7818932Y518566D01*
X7822793Y519328D01*
X7836408Y519328D01*
X7842707Y520039D01*
X7848092Y521919D01*
X7852968Y525018D01*
X7856981Y529031D01*
X7860080Y533908D01*
X7861960Y539292D01*
X7862671Y545592D01*
X7862671Y724408D01*
X7861960Y730707D01*
X7860080Y736092D01*
X7856981Y740968D01*
X7852968Y744982D01*
X7848092Y748030D01*
X7842707Y749960D01*
X7836408Y750671D01*
X7657592Y750671D01*
X7651292Y749960D01*
X7645908Y748030D01*
X7641031Y744982D01*
X7637018Y740968D01*
X7633970Y736092D01*
X7632039Y730707D01*
X7631328Y724408D01*
X7631328Y545592D01*
X7632039Y539292D01*
X7633970Y533908D01*
X7637018Y529031D01*
X7641031Y525018D01*
X7645908Y521919D01*
X7651292Y520039D01*
X7657592Y519328D01*
X7671206Y519328D01*
X7675067Y518566D01*
X7678369Y516382D01*
X7680553Y513080D01*
X7681366Y509168D01*
X7681366Y252831D01*
X7680553Y248920D01*
X7678369Y245617D01*
X7675067Y243433D01*
X7671206Y242671D01*
X7657592Y242671D01*
X7651292Y241960D01*
X7645908Y240029D01*
X7641031Y236982D01*
X7637018Y232968D01*
X7633970Y228092D01*
X7632039Y222707D01*
X7631328Y216408D01*
X7631328Y37592D01*
X7632039Y31292D01*
X7635341Y21844D01*
X7634986Y17627D01*
X7632852Y13868D01*
X7629448Y11328D01*
X7625283Y10464D01*
X7614716Y10464D01*
X7610551Y11328D01*
X7607147Y13868D01*
X7605014Y17627D01*
X7604658Y21844D01*
X7607960Y31292D01*
X7608671Y37592D01*
X7608671Y216408D01*
X7607960Y222707D01*
X7606080Y228092D01*
X7602981Y232968D01*
X7598968Y236982D01*
X7594092Y240029D01*
X7588707Y241960D01*
X7582408Y242671D01*
X7568793Y242671D01*
X7564932Y243433D01*
X7561630Y245617D01*
X7559446Y248920D01*
X7558633Y252831D01*
X7558633Y509168D01*
X7559446Y513080D01*
X7561630Y516382D01*
X7564932Y518566D01*
X7568793Y519328D01*
X7582408Y519328D01*
X7588707Y520039D01*
X7594092Y521919D01*
X7598968Y525018D01*
X7602981Y529031D01*
X7606080Y533908D01*
X7607960Y539292D01*
X7608671Y545592D01*
X7608671Y724408D01*
X7607960Y730707D01*
X7606080Y736092D01*
X7602981Y740968D01*
X7598968Y744982D01*
X7594092Y748030D01*
X7588707Y749960D01*
X7582408Y750671D01*
X7403592Y750671D01*
X7397292Y749960D01*
X7391908Y748030D01*
X7387031Y744982D01*
X7383018Y740968D01*
X7379970Y736092D01*
X7378039Y730707D01*
X7377328Y724408D01*
X7377328Y545592D01*
X7378039Y539292D01*
X7379970Y533908D01*
X7383018Y529031D01*
X7387031Y525018D01*
X7391908Y521919D01*
X7397292Y520039D01*
X7403592Y519328D01*
X7417206Y519328D01*
X7421067Y518566D01*
X7424369Y516382D01*
X7426553Y513080D01*
X7427366Y509168D01*
X7427366Y252831D01*
X7426553Y248920D01*
X7424369Y245617D01*
X7421067Y243433D01*
X7417206Y242671D01*
X7403592Y242671D01*
X7397292Y241960D01*
X7391908Y240029D01*
X7387031Y236982D01*
X7383018Y232968D01*
X7379970Y228092D01*
X7378039Y222707D01*
X7377328Y216408D01*
X7377328Y37592D01*
X7378039Y31292D01*
X7381341Y21844D01*
X7380986Y17627D01*
X7378852Y13868D01*
X7375448Y11328D01*
X7371283Y10464D01*
X7360716Y10464D01*
X7356551Y11328D01*
X7353147Y13868D01*
X7351014Y17627D01*
X7350658Y21844D01*
X7353960Y31292D01*
X7354671Y37592D01*
X7354671Y75641D01*
X7290358Y75641D01*
X7290358Y20624D01*
X7289596Y16713D01*
X7287361Y13411D01*
X7284059Y11226D01*
X7280198Y10464D01*
X7197801Y10464D01*
X7193940Y11226D01*
X7190638Y13411D01*
X7188403Y16713D01*
X7187641Y20624D01*
X7187641Y75641D01*
X7123328Y75641D01*
X7123328Y37592D01*
X7124039Y31292D01*
X7127341Y21844D01*
X7126986Y17627D01*
X7124852Y13868D01*
X7121448Y11328D01*
X7117283Y10464D01*
G37*

%LPC*%
G36*
X9923221Y78435D02*
G01*
X9941255Y79806D01*
X9959035Y83058D01*
X9976408Y88087D01*
X9993172Y94945D01*
X10009124Y103428D01*
X10024110Y113537D01*
X10038029Y125120D01*
X10050627Y138074D01*
X10061854Y152247D01*
X10071557Y167487D01*
X10079634Y183642D01*
X10086035Y200609D01*
X10090607Y218084D01*
X10093401Y235915D01*
X10094315Y254000D01*
X10093401Y272034D01*
X10090607Y289915D01*
X10086035Y307390D01*
X10079634Y324358D01*
X10071557Y340512D01*
X10061854Y355752D01*
X10050627Y369925D01*
X10038029Y382879D01*
X10024110Y394462D01*
X10009124Y404571D01*
X9993172Y413054D01*
X9976408Y419912D01*
X9959035Y424942D01*
X9941255Y428193D01*
X9923221Y429564D01*
X9905136Y429107D01*
X9887204Y426770D01*
X9869627Y422656D01*
X9852507Y416712D01*
X9836150Y409041D01*
X9820656Y399745D01*
X9806178Y388874D01*
X9792919Y376580D01*
X9780981Y363016D01*
X9770516Y348284D01*
X9761575Y332536D01*
X9754362Y315976D01*
X9748875Y298754D01*
X9745167Y281025D01*
X9743287Y263042D01*
X9743287Y244957D01*
X9745167Y226974D01*
X9748875Y209245D01*
X9754362Y192024D01*
X9761575Y175463D01*
X9770516Y159715D01*
X9780981Y144983D01*
X9792919Y131419D01*
X9806178Y119126D01*
X9820656Y108254D01*
X9836150Y98958D01*
X9852507Y91287D01*
X9869627Y85344D01*
X9887204Y81229D01*
X9905136Y78892D01*
G37*
G36*
X5719521Y78435D02*
G01*
X5737555Y79806D01*
X5755335Y83058D01*
X5772708Y88087D01*
X5789472Y94945D01*
X5805424Y103428D01*
X5820410Y113537D01*
X5834329Y125120D01*
X5846927Y138074D01*
X5858154Y152247D01*
X5867857Y167487D01*
X5875934Y183642D01*
X5882335Y200609D01*
X5886907Y218084D01*
X5889701Y235915D01*
X5890615Y254000D01*
X5889701Y272034D01*
X5886907Y289915D01*
X5882335Y307390D01*
X5875934Y324358D01*
X5867857Y340512D01*
X5858154Y355752D01*
X5846927Y369925D01*
X5834329Y382879D01*
X5820410Y394462D01*
X5805424Y404571D01*
X5789472Y413054D01*
X5772708Y419912D01*
X5755335Y424942D01*
X5737555Y428193D01*
X5719521Y429564D01*
X5701436Y429107D01*
X5683504Y426770D01*
X5665927Y422656D01*
X5648807Y416712D01*
X5632450Y409041D01*
X5616956Y399745D01*
X5602478Y388874D01*
X5589219Y376580D01*
X5577281Y363016D01*
X5566816Y348284D01*
X5557875Y332536D01*
X5550662Y315976D01*
X5545175Y298754D01*
X5541467Y281025D01*
X5539587Y263042D01*
X5539587Y244957D01*
X5541467Y226974D01*
X5545175Y209245D01*
X5550662Y192024D01*
X5557875Y175463D01*
X5566816Y159715D01*
X5577281Y144983D01*
X5589219Y131419D01*
X5602478Y119126D01*
X5616956Y108254D01*
X5632450Y98958D01*
X5648807Y91287D01*
X5665927Y85344D01*
X5683504Y81229D01*
X5701436Y78892D01*
G37*
G36*
X7290358Y178358D02*
G01*
X7354671Y178358D01*
X7354671Y216408D01*
X7353960Y222707D01*
X7352080Y228092D01*
X7348981Y232968D01*
X7344968Y236982D01*
X7340092Y240029D01*
X7334707Y241960D01*
X7328408Y242671D01*
X7290358Y242671D01*
G37*
G36*
X7123328Y178358D02*
G01*
X7187641Y178358D01*
X7187641Y242671D01*
X7149592Y242671D01*
X7143292Y241960D01*
X7137908Y240029D01*
X7133031Y236982D01*
X7129018Y232968D01*
X7125970Y228092D01*
X7124039Y222707D01*
X7123328Y216408D01*
G37*
G36*
X9068358Y178358D02*
G01*
X9132671Y178358D01*
X9132671Y216408D01*
X9131960Y222707D01*
X9130080Y228092D01*
X9126982Y232968D01*
X9122968Y236982D01*
X9118092Y240029D01*
X9112707Y241960D01*
X9106408Y242671D01*
X9068358Y242671D01*
G37*
G36*
X8901328Y178358D02*
G01*
X8965641Y178358D01*
X8965641Y242671D01*
X8927592Y242671D01*
X8921292Y241960D01*
X8915908Y240029D01*
X8911031Y236982D01*
X8907018Y232968D01*
X8903970Y228092D01*
X8902039Y222707D01*
X8901328Y216408D01*
G37*
G36*
X6387592Y519328D02*
G01*
X6425641Y519328D01*
X6425641Y583641D01*
X6361328Y583641D01*
X6361328Y545592D01*
X6362039Y539292D01*
X6363970Y533908D01*
X6367018Y529031D01*
X6371031Y525018D01*
X6375908Y521919D01*
X6381292Y520039D01*
G37*
G36*
X6528358Y519328D02*
G01*
X6566408Y519328D01*
X6572707Y520039D01*
X6578092Y521919D01*
X6582968Y525018D01*
X6586981Y529031D01*
X6590080Y533908D01*
X6591960Y539292D01*
X6592671Y545592D01*
X6592671Y583641D01*
X6528358Y583641D01*
G37*
G36*
X6641592Y519328D02*
G01*
X6820408Y519328D01*
X6826707Y520039D01*
X6832092Y521919D01*
X6836968Y525018D01*
X6840981Y529031D01*
X6844080Y533908D01*
X6845960Y539292D01*
X6846671Y545592D01*
X6846671Y724408D01*
X6845960Y730707D01*
X6844080Y736092D01*
X6840981Y740968D01*
X6836968Y744982D01*
X6832092Y748030D01*
X6826707Y749960D01*
X6820408Y750671D01*
X6641592Y750671D01*
X6635292Y749960D01*
X6629908Y748030D01*
X6625031Y744982D01*
X6621018Y740968D01*
X6617970Y736092D01*
X6616039Y730707D01*
X6615328Y724408D01*
X6615328Y545592D01*
X6616039Y539292D01*
X6617970Y533908D01*
X6621018Y529031D01*
X6625031Y525018D01*
X6629908Y521919D01*
X6635292Y520039D01*
G37*
G36*
X6895592Y519328D02*
G01*
X7074408Y519328D01*
X7080707Y520039D01*
X7086092Y521919D01*
X7090968Y525018D01*
X7094981Y529031D01*
X7098080Y533908D01*
X7099960Y539292D01*
X7100671Y545592D01*
X7100671Y724408D01*
X7099960Y730707D01*
X7098080Y736092D01*
X7094981Y740968D01*
X7090968Y744982D01*
X7086092Y748030D01*
X7080707Y749960D01*
X7074408Y750671D01*
X6895592Y750671D01*
X6889292Y749960D01*
X6883908Y748030D01*
X6879031Y744982D01*
X6875018Y740968D01*
X6871970Y736092D01*
X6870039Y730707D01*
X6869328Y724408D01*
X6869328Y545592D01*
X6870039Y539292D01*
X6871970Y533908D01*
X6875018Y529031D01*
X6879031Y525018D01*
X6883908Y521919D01*
X6889292Y520039D01*
G37*
G36*
X7149592Y519328D02*
G01*
X7328408Y519328D01*
X7334707Y520039D01*
X7340092Y521919D01*
X7344968Y525018D01*
X7348981Y529031D01*
X7352080Y533908D01*
X7353960Y539292D01*
X7354671Y545592D01*
X7354671Y724408D01*
X7353960Y730707D01*
X7352080Y736092D01*
X7348981Y740968D01*
X7344968Y744982D01*
X7340092Y748030D01*
X7334707Y749960D01*
X7328408Y750671D01*
X7149592Y750671D01*
X7143292Y749960D01*
X7137908Y748030D01*
X7133031Y744982D01*
X7129018Y740968D01*
X7125970Y736092D01*
X7124039Y730707D01*
X7123328Y724408D01*
X7123328Y545592D01*
X7124039Y539292D01*
X7125970Y533908D01*
X7129018Y529031D01*
X7133031Y525018D01*
X7137908Y521919D01*
X7143292Y520039D01*
G37*
G36*
X6361328Y686358D02*
G01*
X6425641Y686358D01*
X6425641Y750671D01*
X6387592Y750671D01*
X6381292Y749960D01*
X6375908Y748030D01*
X6371031Y744982D01*
X6367018Y740968D01*
X6363970Y736092D01*
X6362039Y730707D01*
X6361328Y724408D01*
G37*
G36*
X6528358Y686358D02*
G01*
X6592671Y686358D01*
X6592671Y724408D01*
X6591960Y730707D01*
X6590080Y736092D01*
X6586981Y740968D01*
X6582968Y744982D01*
X6578092Y748030D01*
X6572707Y749960D01*
X6566408Y750671D01*
X6528358Y750671D01*
G37*
G36*
X5625592Y874928D02*
G01*
X5663641Y874928D01*
X5663641Y939241D01*
X5599328Y939241D01*
X5599328Y901192D01*
X5600039Y894892D01*
X5601970Y889508D01*
X5605018Y884631D01*
X5609031Y880618D01*
X5613908Y877519D01*
X5619292Y875639D01*
G37*
G36*
X5766358Y874928D02*
G01*
X5804408Y874928D01*
X5810707Y875639D01*
X5816092Y877519D01*
X5820968Y880618D01*
X5824982Y884631D01*
X5828080Y889508D01*
X5829960Y894892D01*
X5830671Y901192D01*
X5830671Y939241D01*
X5766358Y939241D01*
G37*
G36*
X6641592Y1268628D02*
G01*
X6820408Y1268628D01*
X6826707Y1269339D01*
X6832092Y1271219D01*
X6836968Y1274318D01*
X6840981Y1278331D01*
X6844080Y1283208D01*
X6845960Y1288592D01*
X6846671Y1294892D01*
X6846671Y1473708D01*
X6845960Y1480007D01*
X6844080Y1485392D01*
X6840981Y1490268D01*
X6836968Y1494282D01*
X6832092Y1497330D01*
X6826707Y1499260D01*
X6820408Y1499971D01*
X6641592Y1499971D01*
X6635292Y1499260D01*
X6629908Y1497330D01*
X6625031Y1494282D01*
X6621018Y1490268D01*
X6617970Y1485392D01*
X6616039Y1480007D01*
X6615328Y1473708D01*
X6615328Y1294892D01*
X6616039Y1288592D01*
X6617970Y1283208D01*
X6621018Y1278331D01*
X6625031Y1274318D01*
X6629908Y1271219D01*
X6635292Y1269339D01*
G37*
G36*
X6908292Y1268628D02*
G01*
X7087108Y1268628D01*
X7093407Y1269339D01*
X7098792Y1271219D01*
X7103668Y1274318D01*
X7107681Y1278331D01*
X7110780Y1283208D01*
X7112152Y1287272D01*
X7114286Y1290777D01*
X7117588Y1293164D01*
X7121550Y1294079D01*
X7125563Y1293317D01*
X7128967Y1291082D01*
X7133031Y1287018D01*
X7137908Y1283919D01*
X7143292Y1282039D01*
X7149592Y1281328D01*
X7328408Y1281328D01*
X7334707Y1282039D01*
X7340092Y1283919D01*
X7344968Y1287018D01*
X7348981Y1291031D01*
X7352080Y1295908D01*
X7353960Y1301292D01*
X7354671Y1307592D01*
X7354671Y1486408D01*
X7353960Y1492707D01*
X7352080Y1498092D01*
X7348981Y1502968D01*
X7344968Y1506982D01*
X7340092Y1510030D01*
X7334707Y1511960D01*
X7328408Y1512671D01*
X7149592Y1512671D01*
X7143292Y1511960D01*
X7137908Y1510030D01*
X7133031Y1506982D01*
X7129018Y1502968D01*
X7125970Y1498092D01*
X7124547Y1494028D01*
X7122414Y1490522D01*
X7119112Y1488135D01*
X7115149Y1487220D01*
X7111136Y1487982D01*
X7107732Y1490218D01*
X7103668Y1494282D01*
X7098792Y1497330D01*
X7093407Y1499260D01*
X7087108Y1499971D01*
X6908292Y1499971D01*
X6901992Y1499260D01*
X6896608Y1497330D01*
X6891731Y1494282D01*
X6887718Y1490268D01*
X6884670Y1485392D01*
X6882739Y1480007D01*
X6882028Y1473708D01*
X6882028Y1294892D01*
X6882739Y1288592D01*
X6884670Y1283208D01*
X6887718Y1278331D01*
X6891731Y1274318D01*
X6896608Y1271219D01*
X6901992Y1269339D01*
G37*
G36*
X7657592Y1281328D02*
G01*
X7836408Y1281328D01*
X7842707Y1282039D01*
X7848092Y1283919D01*
X7852968Y1287018D01*
X7856981Y1291031D01*
X7860080Y1295908D01*
X7861960Y1301292D01*
X7862671Y1307592D01*
X7862671Y1486408D01*
X7861960Y1492707D01*
X7860080Y1498092D01*
X7856981Y1502968D01*
X7852968Y1506982D01*
X7848092Y1510030D01*
X7842707Y1511960D01*
X7836408Y1512671D01*
X7822793Y1512671D01*
X7818932Y1513433D01*
X7815630Y1515618D01*
X7813446Y1518920D01*
X7812633Y1522831D01*
X7812633Y1779168D01*
X7813446Y1783080D01*
X7815630Y1786382D01*
X7818932Y1788566D01*
X7822793Y1789328D01*
X7836408Y1789328D01*
X7842707Y1790039D01*
X7848092Y1791919D01*
X7852968Y1795018D01*
X7856981Y1799031D01*
X7860080Y1803907D01*
X7861960Y1809292D01*
X7862671Y1815592D01*
X7862671Y1994407D01*
X7861960Y2000707D01*
X7860080Y2006092D01*
X7856981Y2010968D01*
X7852968Y2014982D01*
X7848092Y2018030D01*
X7842707Y2019960D01*
X7836408Y2020671D01*
X7657592Y2020671D01*
X7651292Y2019960D01*
X7645908Y2018030D01*
X7641031Y2014982D01*
X7637018Y2010968D01*
X7633970Y2006092D01*
X7632039Y2000707D01*
X7631328Y1994407D01*
X7631328Y1815592D01*
X7632039Y1809292D01*
X7633970Y1803907D01*
X7637018Y1799031D01*
X7641031Y1795018D01*
X7645908Y1791919D01*
X7651292Y1790039D01*
X7657592Y1789328D01*
X7671206Y1789328D01*
X7675067Y1788566D01*
X7678369Y1786382D01*
X7680553Y1783080D01*
X7681366Y1779168D01*
X7681366Y1522831D01*
X7680553Y1518920D01*
X7678369Y1515618D01*
X7675067Y1513433D01*
X7671206Y1512671D01*
X7657592Y1512671D01*
X7651292Y1511960D01*
X7645908Y1510030D01*
X7641031Y1506982D01*
X7637018Y1502968D01*
X7633970Y1498092D01*
X7632039Y1492707D01*
X7631328Y1486408D01*
X7631328Y1307592D01*
X7632039Y1301292D01*
X7633970Y1295908D01*
X7637018Y1291031D01*
X7641031Y1287018D01*
X7645908Y1283919D01*
X7651292Y1282039D01*
G37*
G36*
X8165592Y1281328D02*
G01*
X8344408Y1281328D01*
X8350707Y1282039D01*
X8356092Y1283919D01*
X8360968Y1287018D01*
X8364981Y1291031D01*
X8368080Y1295908D01*
X8369960Y1301292D01*
X8370671Y1307592D01*
X8370671Y1486408D01*
X8369960Y1492707D01*
X8368080Y1498092D01*
X8364981Y1502968D01*
X8360968Y1506982D01*
X8356092Y1510030D01*
X8350707Y1511960D01*
X8344408Y1512671D01*
X8330793Y1512671D01*
X8326932Y1513433D01*
X8323630Y1515618D01*
X8321446Y1518920D01*
X8320633Y1522831D01*
X8320633Y1779168D01*
X8321446Y1783080D01*
X8323630Y1786382D01*
X8326932Y1788566D01*
X8330793Y1789328D01*
X8344408Y1789328D01*
X8350707Y1790039D01*
X8356092Y1791919D01*
X8360968Y1795018D01*
X8364981Y1799031D01*
X8368080Y1803907D01*
X8369960Y1809292D01*
X8370671Y1815592D01*
X8370671Y1994407D01*
X8369960Y2000707D01*
X8368080Y2006092D01*
X8364981Y2010968D01*
X8360968Y2014982D01*
X8356092Y2018030D01*
X8350707Y2019960D01*
X8344408Y2020671D01*
X8165592Y2020671D01*
X8159292Y2019960D01*
X8153908Y2018030D01*
X8149031Y2014982D01*
X8145018Y2010968D01*
X8141970Y2006092D01*
X8140039Y2000707D01*
X8139328Y1994407D01*
X8139328Y1815592D01*
X8140039Y1809292D01*
X8141970Y1803907D01*
X8145018Y1799031D01*
X8149031Y1795018D01*
X8153908Y1791919D01*
X8159292Y1790039D01*
X8165592Y1789328D01*
X8179206Y1789328D01*
X8183067Y1788566D01*
X8186369Y1786382D01*
X8188553Y1783080D01*
X8189366Y1779168D01*
X8189366Y1522831D01*
X8188553Y1518920D01*
X8186369Y1515618D01*
X8183067Y1513433D01*
X8179206Y1512671D01*
X8165592Y1512671D01*
X8159292Y1511960D01*
X8153908Y1510030D01*
X8149031Y1506982D01*
X8145018Y1502968D01*
X8141970Y1498092D01*
X8140039Y1492707D01*
X8139328Y1486408D01*
X8139328Y1307592D01*
X8140039Y1301292D01*
X8141970Y1295908D01*
X8145018Y1291031D01*
X8149031Y1287018D01*
X8153908Y1283919D01*
X8159292Y1282039D01*
G37*
G36*
X8419592Y1281328D02*
G01*
X8598408Y1281328D01*
X8604707Y1282039D01*
X8610092Y1283919D01*
X8614968Y1287018D01*
X8618982Y1291031D01*
X8622080Y1295908D01*
X8623960Y1301292D01*
X8624671Y1307592D01*
X8624671Y1486408D01*
X8623960Y1492707D01*
X8622080Y1498092D01*
X8618982Y1502968D01*
X8614968Y1506982D01*
X8610092Y1510030D01*
X8604707Y1511960D01*
X8598408Y1512671D01*
X8584793Y1512671D01*
X8580932Y1513433D01*
X8577630Y1515618D01*
X8575446Y1518920D01*
X8574633Y1522831D01*
X8574633Y1779168D01*
X8575446Y1783080D01*
X8577630Y1786382D01*
X8580932Y1788566D01*
X8584793Y1789328D01*
X8598408Y1789328D01*
X8604707Y1790039D01*
X8610092Y1791919D01*
X8614968Y1795018D01*
X8618982Y1799031D01*
X8622080Y1803907D01*
X8623960Y1809292D01*
X8624671Y1815592D01*
X8624671Y1994407D01*
X8623960Y2000707D01*
X8622080Y2006092D01*
X8618982Y2010968D01*
X8614968Y2014982D01*
X8610092Y2018030D01*
X8604707Y2019960D01*
X8598408Y2020671D01*
X8419592Y2020671D01*
X8413292Y2019960D01*
X8407908Y2018030D01*
X8403031Y2014982D01*
X8399018Y2010968D01*
X8395970Y2006092D01*
X8394039Y2000707D01*
X8393328Y1994407D01*
X8393328Y1815592D01*
X8394039Y1809292D01*
X8395970Y1803907D01*
X8399018Y1799031D01*
X8403031Y1795018D01*
X8407908Y1791919D01*
X8413292Y1790039D01*
X8419592Y1789328D01*
X8433206Y1789328D01*
X8437067Y1788566D01*
X8440369Y1786382D01*
X8442553Y1783080D01*
X8443366Y1779168D01*
X8443366Y1522831D01*
X8442553Y1518920D01*
X8440369Y1515618D01*
X8437067Y1513433D01*
X8433206Y1512671D01*
X8419592Y1512671D01*
X8413292Y1511960D01*
X8407908Y1510030D01*
X8403031Y1506982D01*
X8399018Y1502968D01*
X8395970Y1498092D01*
X8394039Y1492707D01*
X8393328Y1486408D01*
X8393328Y1307592D01*
X8394039Y1301292D01*
X8395970Y1295908D01*
X8399018Y1291031D01*
X8403031Y1287018D01*
X8407908Y1283919D01*
X8413292Y1282039D01*
G37*
G36*
X7911592Y1281328D02*
G01*
X8090408Y1281328D01*
X8096707Y1282039D01*
X8102092Y1283919D01*
X8106968Y1287018D01*
X8110981Y1291031D01*
X8114080Y1295908D01*
X8115960Y1301292D01*
X8116671Y1307592D01*
X8116671Y1486408D01*
X8115960Y1492707D01*
X8114080Y1498092D01*
X8110981Y1502968D01*
X8106968Y1506982D01*
X8102092Y1510030D01*
X8096707Y1511960D01*
X8090408Y1512671D01*
X8076793Y1512671D01*
X8072932Y1513433D01*
X8069630Y1515618D01*
X8067446Y1518920D01*
X8066633Y1522831D01*
X8066633Y1779168D01*
X8067446Y1783080D01*
X8069630Y1786382D01*
X8072932Y1788566D01*
X8076793Y1789328D01*
X8090408Y1789328D01*
X8096707Y1790039D01*
X8102092Y1791919D01*
X8106968Y1795018D01*
X8110981Y1799031D01*
X8114080Y1803907D01*
X8115960Y1809292D01*
X8116671Y1815592D01*
X8116671Y1994407D01*
X8115960Y2000707D01*
X8114080Y2006092D01*
X8110981Y2010968D01*
X8106968Y2014982D01*
X8102092Y2018030D01*
X8096707Y2019960D01*
X8090408Y2020671D01*
X7911592Y2020671D01*
X7905292Y2019960D01*
X7899908Y2018030D01*
X7895031Y2014982D01*
X7891018Y2010968D01*
X7887970Y2006092D01*
X7886039Y2000707D01*
X7885328Y1994407D01*
X7885328Y1815592D01*
X7886039Y1809292D01*
X7887970Y1803907D01*
X7891018Y1799031D01*
X7895031Y1795018D01*
X7899908Y1791919D01*
X7905292Y1790039D01*
X7911592Y1789328D01*
X7925206Y1789328D01*
X7929067Y1788566D01*
X7932369Y1786382D01*
X7934553Y1783080D01*
X7935366Y1779168D01*
X7935366Y1522831D01*
X7934553Y1518920D01*
X7932369Y1515618D01*
X7929067Y1513433D01*
X7925206Y1512671D01*
X7911592Y1512671D01*
X7905292Y1511960D01*
X7899908Y1510030D01*
X7895031Y1506982D01*
X7891018Y1502968D01*
X7887970Y1498092D01*
X7886039Y1492707D01*
X7885328Y1486408D01*
X7885328Y1307592D01*
X7886039Y1301292D01*
X7887970Y1295908D01*
X7891018Y1291031D01*
X7895031Y1287018D01*
X7899908Y1283919D01*
X7905292Y1282039D01*
G37*
G36*
X7403592Y1281328D02*
G01*
X7582408Y1281328D01*
X7588707Y1282039D01*
X7594092Y1283919D01*
X7598968Y1287018D01*
X7602981Y1291031D01*
X7606080Y1295908D01*
X7607960Y1301292D01*
X7608671Y1307592D01*
X7608671Y1486408D01*
X7607960Y1492707D01*
X7606080Y1498092D01*
X7602981Y1502968D01*
X7598968Y1506982D01*
X7594092Y1510030D01*
X7588707Y1511960D01*
X7582408Y1512671D01*
X7568793Y1512671D01*
X7564932Y1513433D01*
X7561630Y1515618D01*
X7559446Y1518920D01*
X7558633Y1522831D01*
X7558633Y1779168D01*
X7559446Y1783080D01*
X7561630Y1786382D01*
X7564932Y1788566D01*
X7568793Y1789328D01*
X7582408Y1789328D01*
X7588707Y1790039D01*
X7594092Y1791919D01*
X7598968Y1795018D01*
X7602981Y1799031D01*
X7606080Y1803907D01*
X7607960Y1809292D01*
X7608671Y1815592D01*
X7608671Y1994407D01*
X7607960Y2000707D01*
X7606080Y2006092D01*
X7602981Y2010968D01*
X7598968Y2014982D01*
X7594092Y2018030D01*
X7588707Y2019960D01*
X7582408Y2020671D01*
X7403592Y2020671D01*
X7397292Y2019960D01*
X7391908Y2018030D01*
X7387031Y2014982D01*
X7383018Y2010968D01*
X7379970Y2006092D01*
X7378039Y2000707D01*
X7377328Y1994407D01*
X7377328Y1815592D01*
X7378039Y1809292D01*
X7379970Y1803907D01*
X7383018Y1799031D01*
X7387031Y1795018D01*
X7391908Y1791919D01*
X7397292Y1790039D01*
X7403592Y1789328D01*
X7417206Y1789328D01*
X7421067Y1788566D01*
X7424369Y1786382D01*
X7426553Y1783080D01*
X7427366Y1779168D01*
X7427366Y1522831D01*
X7426553Y1518920D01*
X7424369Y1515618D01*
X7421067Y1513433D01*
X7417206Y1512671D01*
X7403592Y1512671D01*
X7397292Y1511960D01*
X7391908Y1510030D01*
X7387031Y1506982D01*
X7383018Y1502968D01*
X7379970Y1498092D01*
X7378039Y1492707D01*
X7377328Y1486408D01*
X7377328Y1307592D01*
X7378039Y1301292D01*
X7379970Y1295908D01*
X7383018Y1291031D01*
X7387031Y1287018D01*
X7391908Y1283919D01*
X7397292Y1282039D01*
G37*
G36*
X7149592Y1789328D02*
G01*
X7187641Y1789328D01*
X7187641Y1853641D01*
X7123328Y1853641D01*
X7123328Y1815592D01*
X7124039Y1809292D01*
X7125970Y1803907D01*
X7129018Y1799031D01*
X7133031Y1795018D01*
X7137908Y1791919D01*
X7143292Y1790039D01*
G37*
G36*
X7290358Y1789328D02*
G01*
X7328408Y1789328D01*
X7334707Y1790039D01*
X7340092Y1791919D01*
X7344968Y1795018D01*
X7348981Y1799031D01*
X7352080Y1803907D01*
X7353960Y1809292D01*
X7354671Y1815592D01*
X7354671Y1853641D01*
X7290358Y1853641D01*
G37*
G36*
X9689592Y1789328D02*
G01*
X9868408Y1789328D01*
X9874707Y1790039D01*
X9880092Y1791919D01*
X9884968Y1795018D01*
X9888982Y1799031D01*
X9892080Y1803907D01*
X9893960Y1809292D01*
X9894671Y1815592D01*
X9894671Y1994407D01*
X9893960Y2000707D01*
X9892080Y2006092D01*
X9888982Y2010968D01*
X9884968Y2014982D01*
X9880092Y2018030D01*
X9874707Y2019960D01*
X9868408Y2020671D01*
X9689592Y2020671D01*
X9683292Y2019960D01*
X9677908Y2018030D01*
X9673031Y2014982D01*
X9669018Y2010968D01*
X9665970Y2006092D01*
X9664039Y2000707D01*
X9663328Y1994407D01*
X9663328Y1815592D01*
X9664039Y1809292D01*
X9665970Y1803907D01*
X9669018Y1799031D01*
X9673031Y1795018D01*
X9677908Y1791919D01*
X9683292Y1790039D01*
G37*
G36*
X8927592Y1789328D02*
G01*
X9106408Y1789328D01*
X9112707Y1790039D01*
X9118092Y1791919D01*
X9122968Y1795018D01*
X9126982Y1799031D01*
X9130080Y1803907D01*
X9131960Y1809292D01*
X9132671Y1815592D01*
X9132671Y1994407D01*
X9131960Y2000707D01*
X9130080Y2006092D01*
X9126982Y2010968D01*
X9122968Y2014982D01*
X9118092Y2018030D01*
X9112707Y2019960D01*
X9106408Y2020671D01*
X8927592Y2020671D01*
X8921292Y2019960D01*
X8915908Y2018030D01*
X8911031Y2014982D01*
X8907018Y2010968D01*
X8903970Y2006092D01*
X8902039Y2000707D01*
X8901328Y1994407D01*
X8901328Y1815592D01*
X8902039Y1809292D01*
X8903970Y1803907D01*
X8907018Y1799031D01*
X8911031Y1795018D01*
X8915908Y1791919D01*
X8921292Y1790039D01*
G37*
G36*
X6387592Y1789328D02*
G01*
X6566408Y1789328D01*
X6572707Y1790039D01*
X6578092Y1791919D01*
X6582968Y1795018D01*
X6586981Y1799031D01*
X6590080Y1803907D01*
X6591960Y1809292D01*
X6592671Y1815592D01*
X6592671Y1994407D01*
X6591960Y2000707D01*
X6590080Y2006092D01*
X6586981Y2010968D01*
X6582968Y2014982D01*
X6578092Y2018030D01*
X6572707Y2019960D01*
X6566408Y2020671D01*
X6387592Y2020671D01*
X6381292Y2019960D01*
X6375908Y2018030D01*
X6371031Y2014982D01*
X6367018Y2010968D01*
X6363970Y2006092D01*
X6362039Y2000707D01*
X6361328Y1994407D01*
X6361328Y1815592D01*
X6362039Y1809292D01*
X6363970Y1803907D01*
X6367018Y1799031D01*
X6371031Y1795018D01*
X6375908Y1791919D01*
X6381292Y1790039D01*
G37*
G36*
X9435592Y1789328D02*
G01*
X9614408Y1789328D01*
X9620707Y1790039D01*
X9626092Y1791919D01*
X9630968Y1795018D01*
X9634982Y1799031D01*
X9638080Y1803907D01*
X9639960Y1809292D01*
X9640671Y1815592D01*
X9640671Y1994407D01*
X9639960Y2000707D01*
X9638080Y2006092D01*
X9634982Y2010968D01*
X9630968Y2014982D01*
X9626092Y2018030D01*
X9620707Y2019960D01*
X9614408Y2020671D01*
X9435592Y2020671D01*
X9429292Y2019960D01*
X9423908Y2018030D01*
X9419031Y2014982D01*
X9415018Y2010968D01*
X9411970Y2006092D01*
X9410039Y2000707D01*
X9409328Y1994407D01*
X9409328Y1815592D01*
X9410039Y1809292D01*
X9411970Y1803907D01*
X9415018Y1799031D01*
X9419031Y1795018D01*
X9423908Y1791919D01*
X9429292Y1790039D01*
G37*
G36*
X6895592Y1789328D02*
G01*
X7074408Y1789328D01*
X7080707Y1790039D01*
X7086092Y1791919D01*
X7090968Y1795018D01*
X7094981Y1799031D01*
X7098080Y1803907D01*
X7099960Y1809292D01*
X7100671Y1815592D01*
X7100671Y1994407D01*
X7099960Y2000707D01*
X7098080Y2006092D01*
X7094981Y2010968D01*
X7090968Y2014982D01*
X7086092Y2018030D01*
X7080707Y2019960D01*
X7074408Y2020671D01*
X6895592Y2020671D01*
X6889292Y2019960D01*
X6883908Y2018030D01*
X6879031Y2014982D01*
X6875018Y2010968D01*
X6871970Y2006092D01*
X6870039Y2000707D01*
X6869328Y1994407D01*
X6869328Y1815592D01*
X6870039Y1809292D01*
X6871970Y1803907D01*
X6875018Y1799031D01*
X6879031Y1795018D01*
X6883908Y1791919D01*
X6889292Y1790039D01*
G37*
G36*
X8673592Y1789328D02*
G01*
X8852408Y1789328D01*
X8858707Y1790039D01*
X8864092Y1791919D01*
X8868968Y1795018D01*
X8872982Y1799031D01*
X8876080Y1803907D01*
X8877960Y1809292D01*
X8878671Y1815592D01*
X8878671Y1994407D01*
X8877960Y2000707D01*
X8876080Y2006092D01*
X8872982Y2010968D01*
X8868968Y2014982D01*
X8864092Y2018030D01*
X8858707Y2019960D01*
X8852408Y2020671D01*
X8673592Y2020671D01*
X8667292Y2019960D01*
X8661908Y2018030D01*
X8657031Y2014982D01*
X8653018Y2010968D01*
X8649970Y2006092D01*
X8648039Y2000707D01*
X8647328Y1994407D01*
X8647328Y1815592D01*
X8648039Y1809292D01*
X8649970Y1803907D01*
X8653018Y1799031D01*
X8657031Y1795018D01*
X8661908Y1791919D01*
X8667292Y1790039D01*
G37*
G36*
X6641592Y1789328D02*
G01*
X6820408Y1789328D01*
X6826707Y1790039D01*
X6832092Y1791919D01*
X6836968Y1795018D01*
X6840981Y1799031D01*
X6844080Y1803907D01*
X6845960Y1809292D01*
X6846671Y1815592D01*
X6846671Y1994407D01*
X6845960Y2000707D01*
X6844080Y2006092D01*
X6840981Y2010968D01*
X6836968Y2014982D01*
X6832092Y2018030D01*
X6826707Y2019960D01*
X6820408Y2020671D01*
X6641592Y2020671D01*
X6635292Y2019960D01*
X6629908Y2018030D01*
X6625031Y2014982D01*
X6621018Y2010968D01*
X6617970Y2006092D01*
X6616039Y2000707D01*
X6615328Y1994407D01*
X6615328Y1815592D01*
X6616039Y1809292D01*
X6617970Y1803907D01*
X6621018Y1799031D01*
X6625031Y1795018D01*
X6629908Y1791919D01*
X6635292Y1790039D01*
G37*
G36*
X7123328Y1956358D02*
G01*
X7187641Y1956358D01*
X7187641Y2020671D01*
X7149592Y2020671D01*
X7143292Y2019960D01*
X7137908Y2018030D01*
X7133031Y2014982D01*
X7129018Y2010968D01*
X7125970Y2006092D01*
X7124039Y2000707D01*
X7123328Y1994407D01*
G37*
G36*
X7290358Y1956358D02*
G01*
X7354671Y1956358D01*
X7354671Y1994407D01*
X7353960Y2000707D01*
X7352080Y2006092D01*
X7348981Y2010968D01*
X7344968Y2014982D01*
X7340092Y2018030D01*
X7334707Y2019960D01*
X7328408Y2020671D01*
X7290358Y2020671D01*
G37*
G36*
X5766358Y2043328D02*
G01*
X5804408Y2043328D01*
X5810707Y2044039D01*
X5816092Y2045919D01*
X5820968Y2049018D01*
X5824982Y2053031D01*
X5828080Y2057907D01*
X5829960Y2063292D01*
X5830671Y2069592D01*
X5830671Y2107641D01*
X5766358Y2107641D01*
G37*
G36*
X5625592Y2043328D02*
G01*
X5663641Y2043328D01*
X5663641Y2107641D01*
X5599328Y2107641D01*
X5599328Y2069592D01*
X5600039Y2063292D01*
X5601970Y2057907D01*
X5605018Y2053031D01*
X5609031Y2049018D01*
X5613908Y2045919D01*
X5619292Y2044039D01*
G37*
G36*
X5766358Y2210358D02*
G01*
X5830671Y2210358D01*
X5830671Y2248408D01*
X5829960Y2254707D01*
X5828080Y2260092D01*
X5824982Y2264968D01*
X5820968Y2268982D01*
X5816092Y2272030D01*
X5810707Y2273960D01*
X5804408Y2274671D01*
X5766358Y2274671D01*
G37*
G36*
X5599328Y2210358D02*
G01*
X5663641Y2210358D01*
X5663641Y2274671D01*
X5625592Y2274671D01*
X5619292Y2273960D01*
X5613908Y2272030D01*
X5609031Y2268982D01*
X5605018Y2264968D01*
X5601970Y2260092D01*
X5600039Y2254707D01*
X5599328Y2248408D01*
G37*
G36*
X5625592Y2297328D02*
G01*
X5804408Y2297328D01*
X5810707Y2298039D01*
X5816092Y2299919D01*
X5820968Y2303018D01*
X5824982Y2307031D01*
X5828080Y2311908D01*
X5829960Y2317292D01*
X5830671Y2323592D01*
X5830671Y2337206D01*
X5831433Y2341067D01*
X5833618Y2344369D01*
X5836920Y2346553D01*
X5840831Y2347366D01*
X6730593Y2347366D01*
X6741261Y2348179D01*
X6751269Y2350566D01*
X6760768Y2354529D01*
X6769557Y2359914D01*
X6777380Y2366619D01*
X6784086Y2374442D01*
X6789470Y2383231D01*
X6793433Y2392730D01*
X6795820Y2402738D01*
X6796633Y2413406D01*
X6796633Y3099206D01*
X6797446Y3103067D01*
X6799630Y3106369D01*
X6802932Y3108553D01*
X6806793Y3109366D01*
X7238593Y3109366D01*
X7249261Y3110179D01*
X7259269Y3112566D01*
X7268768Y3116529D01*
X7277557Y3121914D01*
X7285380Y3128619D01*
X7292086Y3136442D01*
X7297470Y3145231D01*
X7301433Y3154730D01*
X7303820Y3164738D01*
X7304633Y3175406D01*
X7304633Y3303168D01*
X7305446Y3307079D01*
X7307630Y3310382D01*
X7310932Y3312566D01*
X7314793Y3313328D01*
X7328408Y3313328D01*
X7334707Y3314039D01*
X7340092Y3315919D01*
X7344968Y3319018D01*
X7348981Y3323031D01*
X7352080Y3327908D01*
X7353960Y3333292D01*
X7354671Y3339592D01*
X7354671Y3518408D01*
X7353960Y3524707D01*
X7352080Y3530092D01*
X7348981Y3534968D01*
X7344968Y3538982D01*
X7340092Y3542029D01*
X7334707Y3543960D01*
X7328408Y3544671D01*
X7149592Y3544671D01*
X7143292Y3543960D01*
X7137908Y3542029D01*
X7133031Y3538982D01*
X7129018Y3534968D01*
X7125970Y3530092D01*
X7124039Y3524707D01*
X7123328Y3518408D01*
X7123328Y3339592D01*
X7124039Y3333292D01*
X7125970Y3327908D01*
X7129018Y3323031D01*
X7133031Y3319018D01*
X7137908Y3315919D01*
X7143292Y3314039D01*
X7149592Y3313328D01*
X7163206Y3313328D01*
X7167067Y3312566D01*
X7170369Y3310382D01*
X7172553Y3307079D01*
X7173366Y3303168D01*
X7173366Y3250793D01*
X7172553Y3246932D01*
X7170369Y3243630D01*
X7167067Y3241446D01*
X7163206Y3240633D01*
X6731406Y3240633D01*
X6720738Y3239820D01*
X6710730Y3237433D01*
X6701231Y3233470D01*
X6692442Y3228086D01*
X6684619Y3221380D01*
X6677914Y3213557D01*
X6672529Y3204768D01*
X6668566Y3195269D01*
X6666179Y3185261D01*
X6665366Y3174593D01*
X6665366Y2488793D01*
X6664553Y2484932D01*
X6662369Y2481630D01*
X6659067Y2479446D01*
X6655206Y2478633D01*
X5840831Y2478633D01*
X5836920Y2479446D01*
X5833618Y2481630D01*
X5831433Y2484932D01*
X5830671Y2488793D01*
X5830671Y2502408D01*
X5829960Y2508707D01*
X5828080Y2514092D01*
X5824982Y2518968D01*
X5820968Y2522982D01*
X5816092Y2526030D01*
X5810707Y2527960D01*
X5804408Y2528671D01*
X5625592Y2528671D01*
X5619292Y2527960D01*
X5613908Y2526030D01*
X5609031Y2522982D01*
X5605018Y2518968D01*
X5601970Y2514092D01*
X5600039Y2508707D01*
X5599328Y2502408D01*
X5599328Y2323592D01*
X5600039Y2317292D01*
X5601970Y2311908D01*
X5605018Y2307031D01*
X5609031Y2303018D01*
X5613908Y2299919D01*
X5619292Y2298039D01*
G37*
G36*
X9435592Y2805328D02*
G01*
X9473641Y2805328D01*
X9473641Y2869641D01*
X9409328Y2869641D01*
X9409328Y2831592D01*
X9410039Y2825292D01*
X9411970Y2819908D01*
X9415018Y2815031D01*
X9419031Y2811018D01*
X9423908Y2807919D01*
X9429292Y2806039D01*
G37*
G36*
X9576358Y2805328D02*
G01*
X9614408Y2805328D01*
X9620707Y2806039D01*
X9626092Y2807919D01*
X9630968Y2811018D01*
X9634982Y2815031D01*
X9638080Y2819908D01*
X9639960Y2825292D01*
X9640671Y2831592D01*
X9640671Y2869641D01*
X9576358Y2869641D01*
G37*
G36*
X7149592Y2805328D02*
G01*
X7328408Y2805328D01*
X7334707Y2806039D01*
X7340092Y2807919D01*
X7344968Y2811018D01*
X7348981Y2815031D01*
X7352080Y2819908D01*
X7353960Y2825292D01*
X7354671Y2831592D01*
X7354671Y2845206D01*
X7355433Y2849067D01*
X7357618Y2852369D01*
X7360920Y2854553D01*
X7364831Y2855366D01*
X7875168Y2855366D01*
X7879080Y2854553D01*
X7882381Y2852369D01*
X7884566Y2849067D01*
X7885328Y2845206D01*
X7885328Y2831592D01*
X7886039Y2825292D01*
X7887970Y2819908D01*
X7891018Y2815031D01*
X7895031Y2811018D01*
X7899908Y2807919D01*
X7905292Y2806039D01*
X7911592Y2805328D01*
X8090408Y2805328D01*
X8096707Y2806039D01*
X8102092Y2807919D01*
X8106968Y2811018D01*
X8110981Y2815031D01*
X8114080Y2819908D01*
X8115960Y2825292D01*
X8116671Y2831592D01*
X8116671Y3010408D01*
X8115960Y3016707D01*
X8114080Y3022092D01*
X8110981Y3026968D01*
X8106968Y3030982D01*
X8102092Y3034030D01*
X8096707Y3035960D01*
X8090408Y3036671D01*
X7911592Y3036671D01*
X7905292Y3035960D01*
X7899908Y3034030D01*
X7895031Y3030982D01*
X7891018Y3026968D01*
X7887970Y3022092D01*
X7886039Y3016707D01*
X7885328Y3010408D01*
X7885328Y2996793D01*
X7884566Y2992932D01*
X7882381Y2989630D01*
X7879080Y2987446D01*
X7875168Y2986633D01*
X7364831Y2986633D01*
X7360920Y2987446D01*
X7357618Y2989630D01*
X7355433Y2992932D01*
X7354671Y2996793D01*
X7354671Y3010408D01*
X7353960Y3016707D01*
X7352080Y3022092D01*
X7348981Y3026968D01*
X7344968Y3030982D01*
X7340092Y3034030D01*
X7334707Y3035960D01*
X7328408Y3036671D01*
X7149592Y3036671D01*
X7143292Y3035960D01*
X7137908Y3034030D01*
X7133031Y3030982D01*
X7129018Y3026968D01*
X7125970Y3022092D01*
X7124039Y3016707D01*
X7123328Y3010408D01*
X7123328Y2831592D01*
X7124039Y2825292D01*
X7125970Y2819908D01*
X7129018Y2815031D01*
X7133031Y2811018D01*
X7137908Y2807919D01*
X7143292Y2806039D01*
G37*
G36*
X6133592Y2805328D02*
G01*
X6312408Y2805328D01*
X6318707Y2806039D01*
X6324092Y2807919D01*
X6328968Y2811018D01*
X6332982Y2815031D01*
X6336080Y2819908D01*
X6337960Y2825292D01*
X6338671Y2831592D01*
X6338671Y3010408D01*
X6337960Y3016707D01*
X6336080Y3022092D01*
X6332982Y3026968D01*
X6328968Y3030982D01*
X6324092Y3034030D01*
X6318707Y3035960D01*
X6312408Y3036671D01*
X6204407Y3036671D01*
X6200495Y3037433D01*
X6197244Y3039618D01*
X6015685Y3221126D01*
X6007557Y3228086D01*
X5998768Y3233470D01*
X5989269Y3237433D01*
X5979261Y3239820D01*
X5968593Y3240633D01*
X5840831Y3240633D01*
X5836920Y3241446D01*
X5833618Y3243630D01*
X5831433Y3246932D01*
X5830671Y3250793D01*
X5830671Y3264408D01*
X5829960Y3270707D01*
X5828080Y3276092D01*
X5824982Y3280968D01*
X5820968Y3284982D01*
X5816092Y3288029D01*
X5810707Y3289960D01*
X5804408Y3290671D01*
X5625592Y3290671D01*
X5619292Y3289960D01*
X5613908Y3288029D01*
X5609031Y3284982D01*
X5605018Y3280968D01*
X5601970Y3276092D01*
X5600039Y3270707D01*
X5599328Y3264408D01*
X5599328Y3085592D01*
X5600039Y3079292D01*
X5601970Y3073908D01*
X5605018Y3069031D01*
X5609031Y3065018D01*
X5613908Y3061919D01*
X5619292Y3060039D01*
X5625592Y3059328D01*
X5804408Y3059328D01*
X5810707Y3060039D01*
X5816092Y3061919D01*
X5820968Y3065018D01*
X5824982Y3069031D01*
X5828080Y3073908D01*
X5829960Y3079292D01*
X5830671Y3085592D01*
X5830671Y3099206D01*
X5831433Y3103067D01*
X5833618Y3106369D01*
X5836920Y3108553D01*
X5840831Y3109366D01*
X5937605Y3109366D01*
X5941466Y3108553D01*
X5944768Y3106369D01*
X6104382Y2946755D01*
X6106566Y2943504D01*
X6107328Y2939592D01*
X6107328Y2831592D01*
X6108039Y2825292D01*
X6109970Y2819908D01*
X6113018Y2815031D01*
X6117031Y2811018D01*
X6121908Y2807919D01*
X6127292Y2806039D01*
G37*
G36*
X8673592Y2805328D02*
G01*
X8852408Y2805328D01*
X8858707Y2806039D01*
X8864092Y2807919D01*
X8868968Y2811018D01*
X8872982Y2815031D01*
X8876080Y2819908D01*
X8877960Y2825292D01*
X8878671Y2831592D01*
X8878671Y2845206D01*
X8879433Y2849067D01*
X8881618Y2852369D01*
X8884920Y2854553D01*
X8888831Y2855366D01*
X8891168Y2855366D01*
X8895080Y2854553D01*
X8898382Y2852369D01*
X8900566Y2849067D01*
X8901328Y2845206D01*
X8901328Y2831592D01*
X8902039Y2825292D01*
X8903970Y2819908D01*
X8907018Y2815031D01*
X8911031Y2811018D01*
X8915908Y2807919D01*
X8921292Y2806039D01*
X8927592Y2805328D01*
X9106408Y2805328D01*
X9112707Y2806039D01*
X9118092Y2807919D01*
X9122968Y2811018D01*
X9126982Y2815031D01*
X9130080Y2819908D01*
X9131960Y2825292D01*
X9132671Y2831592D01*
X9132671Y3010408D01*
X9131960Y3016707D01*
X9130080Y3022092D01*
X9126982Y3026968D01*
X9122968Y3030982D01*
X9118092Y3034030D01*
X9112707Y3035960D01*
X9106408Y3036671D01*
X9092793Y3036671D01*
X9088932Y3037433D01*
X9085630Y3039618D01*
X9083446Y3042920D01*
X9082633Y3046831D01*
X9082633Y3049168D01*
X9083446Y3053080D01*
X9085630Y3056382D01*
X9088932Y3058566D01*
X9092793Y3059328D01*
X9106408Y3059328D01*
X9112707Y3060039D01*
X9118092Y3061919D01*
X9122968Y3065018D01*
X9126982Y3069031D01*
X9130080Y3073908D01*
X9131960Y3079292D01*
X9132671Y3085592D01*
X9132671Y3264408D01*
X9131960Y3270707D01*
X9130080Y3276092D01*
X9126982Y3280968D01*
X9122968Y3284982D01*
X9118092Y3288029D01*
X9112707Y3289960D01*
X9106408Y3290671D01*
X9092793Y3290671D01*
X9088932Y3291433D01*
X9085630Y3293618D01*
X9083446Y3296920D01*
X9082633Y3300831D01*
X9082633Y3303168D01*
X9083446Y3307079D01*
X9085630Y3310382D01*
X9088932Y3312566D01*
X9092793Y3313328D01*
X9106408Y3313328D01*
X9112707Y3314039D01*
X9118092Y3315919D01*
X9122968Y3319018D01*
X9126982Y3323031D01*
X9130080Y3327908D01*
X9131960Y3333292D01*
X9132671Y3339592D01*
X9132671Y3518408D01*
X9131960Y3524707D01*
X9130080Y3530092D01*
X9126982Y3534968D01*
X9122968Y3538982D01*
X9118092Y3542029D01*
X9112707Y3543960D01*
X9106408Y3544671D01*
X8927592Y3544671D01*
X8921292Y3543960D01*
X8915908Y3542029D01*
X8911031Y3538982D01*
X8907018Y3534968D01*
X8903970Y3530092D01*
X8902039Y3524707D01*
X8901328Y3518408D01*
X8901328Y3339592D01*
X8902039Y3333292D01*
X8903970Y3327908D01*
X8907018Y3323031D01*
X8911031Y3319018D01*
X8915908Y3315919D01*
X8921292Y3314039D01*
X8927592Y3313328D01*
X8941206Y3313328D01*
X8945067Y3312566D01*
X8948369Y3310382D01*
X8950553Y3307079D01*
X8951366Y3303168D01*
X8951366Y3300831D01*
X8950553Y3296920D01*
X8948369Y3293618D01*
X8945067Y3291433D01*
X8941206Y3290671D01*
X8927592Y3290671D01*
X8921292Y3289960D01*
X8915908Y3288029D01*
X8911031Y3284982D01*
X8907018Y3280968D01*
X8903970Y3276092D01*
X8902039Y3270707D01*
X8901328Y3264408D01*
X8901328Y3085592D01*
X8902039Y3079292D01*
X8903970Y3073908D01*
X8907018Y3069031D01*
X8911031Y3065018D01*
X8915908Y3061919D01*
X8921292Y3060039D01*
X8927592Y3059328D01*
X8941206Y3059328D01*
X8945067Y3058566D01*
X8948369Y3056382D01*
X8950553Y3053080D01*
X8951366Y3049168D01*
X8951366Y3046831D01*
X8950553Y3042920D01*
X8948369Y3039618D01*
X8945067Y3037433D01*
X8941206Y3036671D01*
X8927592Y3036671D01*
X8921292Y3035960D01*
X8915908Y3034030D01*
X8911031Y3030982D01*
X8907018Y3026968D01*
X8903970Y3022092D01*
X8902039Y3016707D01*
X8901328Y3010408D01*
X8901328Y2996793D01*
X8900566Y2992932D01*
X8898382Y2989630D01*
X8895080Y2987446D01*
X8891168Y2986633D01*
X8888831Y2986633D01*
X8884920Y2987446D01*
X8881618Y2989630D01*
X8879433Y2992932D01*
X8878671Y2996793D01*
X8878671Y3010408D01*
X8877960Y3016707D01*
X8876080Y3022092D01*
X8872982Y3026968D01*
X8868968Y3030982D01*
X8864092Y3034030D01*
X8858707Y3035960D01*
X8852408Y3036671D01*
X8673592Y3036671D01*
X8667292Y3035960D01*
X8661908Y3034030D01*
X8657031Y3030982D01*
X8653018Y3026968D01*
X8649970Y3022092D01*
X8648039Y3016707D01*
X8647328Y3010408D01*
X8647328Y2831592D01*
X8648039Y2825292D01*
X8649970Y2819908D01*
X8653018Y2815031D01*
X8657031Y2811018D01*
X8661908Y2807919D01*
X8667292Y2806039D01*
G37*
G36*
X9409328Y2972358D02*
G01*
X9473641Y2972358D01*
X9473641Y3036671D01*
X9435592Y3036671D01*
X9429292Y3035960D01*
X9423908Y3034030D01*
X9419031Y3030982D01*
X9415018Y3026968D01*
X9411970Y3022092D01*
X9410039Y3016707D01*
X9409328Y3010408D01*
G37*
G36*
X9576358Y2972358D02*
G01*
X9640671Y2972358D01*
X9640671Y3010408D01*
X9639960Y3016707D01*
X9638080Y3022092D01*
X9634982Y3026968D01*
X9630968Y3030982D01*
X9626092Y3034030D01*
X9620707Y3035960D01*
X9614408Y3036671D01*
X9576358Y3036671D01*
G37*
G36*
X9689592Y3059328D02*
G01*
X9727641Y3059328D01*
X9727641Y3123641D01*
X9663328Y3123641D01*
X9663328Y3085592D01*
X9664039Y3079292D01*
X9665970Y3073908D01*
X9669018Y3069031D01*
X9673031Y3065018D01*
X9677908Y3061919D01*
X9683292Y3060039D01*
G37*
G36*
X9830358Y3059328D02*
G01*
X9868408Y3059328D01*
X9874707Y3060039D01*
X9880092Y3061919D01*
X9884968Y3065018D01*
X9888982Y3069031D01*
X9892080Y3073908D01*
X9893960Y3079292D01*
X9894671Y3085592D01*
X9894671Y3123641D01*
X9830358Y3123641D01*
G37*
G36*
X9663328Y3226358D02*
G01*
X9727641Y3226358D01*
X9727641Y3290671D01*
X9689592Y3290671D01*
X9683292Y3289960D01*
X9677908Y3288029D01*
X9673031Y3284982D01*
X9669018Y3280968D01*
X9665970Y3276092D01*
X9664039Y3270707D01*
X9663328Y3264408D01*
G37*
G36*
X9830358Y3226358D02*
G01*
X9894671Y3226358D01*
X9894671Y3264408D01*
X9893960Y3270707D01*
X9892080Y3276092D01*
X9888982Y3280968D01*
X9884968Y3284982D01*
X9880092Y3288029D01*
X9874707Y3289960D01*
X9868408Y3290671D01*
X9830358Y3290671D01*
G37*
G36*
X5766358Y3313328D02*
G01*
X5804408Y3313328D01*
X5810707Y3314039D01*
X5816092Y3315919D01*
X5820968Y3319018D01*
X5824982Y3323031D01*
X5828080Y3327908D01*
X5829960Y3333292D01*
X5830671Y3339592D01*
X5830671Y3377641D01*
X5766358Y3377641D01*
G37*
G36*
X5625592Y3313328D02*
G01*
X5663641Y3313328D01*
X5663641Y3377641D01*
X5599328Y3377641D01*
X5599328Y3339592D01*
X5600039Y3333292D01*
X5601970Y3327908D01*
X5605018Y3323031D01*
X5609031Y3319018D01*
X5613908Y3315919D01*
X5619292Y3314039D01*
G37*
G36*
X6782358Y3313328D02*
G01*
X6820408Y3313328D01*
X6826707Y3314039D01*
X6832092Y3315919D01*
X6836968Y3319018D01*
X6840981Y3323031D01*
X6844080Y3327908D01*
X6845960Y3333292D01*
X6846671Y3339592D01*
X6846671Y3377641D01*
X6782358Y3377641D01*
G37*
G36*
X6641592Y3313328D02*
G01*
X6679641Y3313328D01*
X6679641Y3377641D01*
X6615328Y3377641D01*
X6615328Y3339592D01*
X6616039Y3333292D01*
X6617970Y3327908D01*
X6621018Y3323031D01*
X6625031Y3319018D01*
X6629908Y3315919D01*
X6635292Y3314039D01*
G37*
G36*
X9689592Y3313328D02*
G01*
X9868408Y3313328D01*
X9874707Y3314039D01*
X9880092Y3315919D01*
X9884968Y3319018D01*
X9888982Y3323031D01*
X9892080Y3327908D01*
X9893960Y3333292D01*
X9894671Y3339592D01*
X9894671Y3518408D01*
X9893960Y3524707D01*
X9892080Y3530092D01*
X9888982Y3534968D01*
X9884968Y3538982D01*
X9880092Y3542029D01*
X9874707Y3543960D01*
X9868408Y3544671D01*
X9689592Y3544671D01*
X9683292Y3543960D01*
X9677908Y3542029D01*
X9673031Y3538982D01*
X9669018Y3534968D01*
X9665970Y3530092D01*
X9664039Y3524707D01*
X9663328Y3518408D01*
X9663328Y3339592D01*
X9664039Y3333292D01*
X9665970Y3327908D01*
X9669018Y3323031D01*
X9673031Y3319018D01*
X9677908Y3315919D01*
X9683292Y3314039D01*
G37*
G36*
X7657592Y3313328D02*
G01*
X7836408Y3313328D01*
X7842707Y3314039D01*
X7848092Y3315919D01*
X7852968Y3319018D01*
X7856981Y3323031D01*
X7860080Y3327908D01*
X7861960Y3333292D01*
X7862671Y3339592D01*
X7862671Y3518408D01*
X7861960Y3524707D01*
X7860080Y3530092D01*
X7856981Y3534968D01*
X7852968Y3538982D01*
X7848092Y3542029D01*
X7842707Y3543960D01*
X7836408Y3544671D01*
X7657592Y3544671D01*
X7651292Y3543960D01*
X7645908Y3542029D01*
X7641031Y3538982D01*
X7637018Y3534968D01*
X7633970Y3530092D01*
X7632039Y3524707D01*
X7631328Y3518408D01*
X7631328Y3339592D01*
X7632039Y3333292D01*
X7633970Y3327908D01*
X7637018Y3323031D01*
X7641031Y3319018D01*
X7645908Y3315919D01*
X7651292Y3314039D01*
G37*
G36*
X7403592Y3313328D02*
G01*
X7582408Y3313328D01*
X7588707Y3314039D01*
X7594092Y3315919D01*
X7598968Y3319018D01*
X7602981Y3323031D01*
X7606080Y3327908D01*
X7607960Y3333292D01*
X7608671Y3339592D01*
X7608671Y3518408D01*
X7607960Y3524707D01*
X7606080Y3530092D01*
X7602981Y3534968D01*
X7598968Y3538982D01*
X7594092Y3542029D01*
X7588707Y3543960D01*
X7582408Y3544671D01*
X7403592Y3544671D01*
X7397292Y3543960D01*
X7391908Y3542029D01*
X7387031Y3538982D01*
X7383018Y3534968D01*
X7379970Y3530092D01*
X7378039Y3524707D01*
X7377328Y3518408D01*
X7377328Y3339592D01*
X7378039Y3333292D01*
X7379970Y3327908D01*
X7383018Y3323031D01*
X7387031Y3319018D01*
X7391908Y3315919D01*
X7397292Y3314039D01*
G37*
G36*
X8419592Y3313328D02*
G01*
X8598408Y3313328D01*
X8604707Y3314039D01*
X8610092Y3315919D01*
X8614968Y3319018D01*
X8618982Y3323031D01*
X8622080Y3327908D01*
X8623960Y3333292D01*
X8624671Y3339592D01*
X8624671Y3518408D01*
X8623960Y3524707D01*
X8622080Y3530092D01*
X8618982Y3534968D01*
X8614968Y3538982D01*
X8610092Y3542029D01*
X8604707Y3543960D01*
X8598408Y3544671D01*
X8419592Y3544671D01*
X8413292Y3543960D01*
X8407908Y3542029D01*
X8403031Y3538982D01*
X8399018Y3534968D01*
X8395970Y3530092D01*
X8394039Y3524707D01*
X8393328Y3518408D01*
X8393328Y3339592D01*
X8394039Y3333292D01*
X8395970Y3327908D01*
X8399018Y3323031D01*
X8403031Y3319018D01*
X8407908Y3315919D01*
X8413292Y3314039D01*
G37*
G36*
X8673592Y3313328D02*
G01*
X8852408Y3313328D01*
X8858707Y3314039D01*
X8864092Y3315919D01*
X8868968Y3319018D01*
X8872982Y3323031D01*
X8876080Y3327908D01*
X8877960Y3333292D01*
X8878671Y3339592D01*
X8878671Y3518408D01*
X8877960Y3524707D01*
X8876080Y3530092D01*
X8872982Y3534968D01*
X8868968Y3538982D01*
X8864092Y3542029D01*
X8858707Y3543960D01*
X8852408Y3544671D01*
X8673592Y3544671D01*
X8667292Y3543960D01*
X8661908Y3542029D01*
X8657031Y3538982D01*
X8653018Y3534968D01*
X8649970Y3530092D01*
X8648039Y3524707D01*
X8647328Y3518408D01*
X8647328Y3339592D01*
X8648039Y3333292D01*
X8649970Y3327908D01*
X8653018Y3323031D01*
X8657031Y3319018D01*
X8661908Y3315919D01*
X8667292Y3314039D01*
G37*
G36*
X6895592Y3313328D02*
G01*
X7074408Y3313328D01*
X7080707Y3314039D01*
X7086092Y3315919D01*
X7090968Y3319018D01*
X7094981Y3323031D01*
X7098080Y3327908D01*
X7099960Y3333292D01*
X7100671Y3339592D01*
X7100671Y3518408D01*
X7099960Y3524707D01*
X7098080Y3530092D01*
X7094981Y3534968D01*
X7090968Y3538982D01*
X7086092Y3542029D01*
X7080707Y3543960D01*
X7074408Y3544671D01*
X6895592Y3544671D01*
X6889292Y3543960D01*
X6883908Y3542029D01*
X6879031Y3538982D01*
X6875018Y3534968D01*
X6871970Y3530092D01*
X6870039Y3524707D01*
X6869328Y3518408D01*
X6869328Y3339592D01*
X6870039Y3333292D01*
X6871970Y3327908D01*
X6875018Y3323031D01*
X6879031Y3319018D01*
X6883908Y3315919D01*
X6889292Y3314039D01*
G37*
G36*
X9435592Y3313328D02*
G01*
X9614408Y3313328D01*
X9620707Y3314039D01*
X9626092Y3315919D01*
X9630968Y3319018D01*
X9634982Y3323031D01*
X9638080Y3327908D01*
X9639960Y3333292D01*
X9640671Y3339592D01*
X9640671Y3518408D01*
X9639960Y3524707D01*
X9638080Y3530092D01*
X9634982Y3534968D01*
X9630968Y3538982D01*
X9626092Y3542029D01*
X9620707Y3543960D01*
X9614408Y3544671D01*
X9435592Y3544671D01*
X9429292Y3543960D01*
X9423908Y3542029D01*
X9419031Y3538982D01*
X9415018Y3534968D01*
X9411970Y3530092D01*
X9410039Y3524707D01*
X9409328Y3518408D01*
X9409328Y3339592D01*
X9410039Y3333292D01*
X9411970Y3327908D01*
X9415018Y3323031D01*
X9419031Y3319018D01*
X9423908Y3315919D01*
X9429292Y3314039D01*
G37*
G36*
X9181592Y3313328D02*
G01*
X9360408Y3313328D01*
X9366707Y3314039D01*
X9372092Y3315919D01*
X9376968Y3319018D01*
X9380982Y3323031D01*
X9384080Y3327908D01*
X9385960Y3333292D01*
X9386671Y3339592D01*
X9386671Y3518408D01*
X9385960Y3524707D01*
X9384080Y3530092D01*
X9380982Y3534968D01*
X9376968Y3538982D01*
X9372092Y3542029D01*
X9366707Y3543960D01*
X9360408Y3544671D01*
X9346793Y3544671D01*
X9342932Y3545433D01*
X9339630Y3547618D01*
X9337446Y3550920D01*
X9336633Y3554831D01*
X9336633Y3557168D01*
X9337446Y3561079D01*
X9339630Y3564382D01*
X9342932Y3566566D01*
X9346793Y3567328D01*
X9360408Y3567328D01*
X9366707Y3568039D01*
X9372092Y3569919D01*
X9376968Y3573018D01*
X9380982Y3577031D01*
X9384080Y3581908D01*
X9385960Y3587292D01*
X9386671Y3593592D01*
X9386671Y3772408D01*
X9385960Y3778707D01*
X9384080Y3784092D01*
X9380982Y3788968D01*
X9376968Y3792982D01*
X9372092Y3796029D01*
X9366707Y3797960D01*
X9360408Y3798671D01*
X9346793Y3798671D01*
X9342932Y3799433D01*
X9339630Y3801618D01*
X9337446Y3804920D01*
X9336633Y3808831D01*
X9336633Y3811168D01*
X9337446Y3815079D01*
X9339630Y3818382D01*
X9342932Y3820566D01*
X9346793Y3821328D01*
X9360408Y3821328D01*
X9366707Y3822039D01*
X9372092Y3823919D01*
X9376968Y3827018D01*
X9380982Y3831031D01*
X9384080Y3835908D01*
X9385960Y3841292D01*
X9386671Y3847592D01*
X9386671Y4026408D01*
X9385960Y4032707D01*
X9384080Y4038092D01*
X9380982Y4042968D01*
X9376968Y4046982D01*
X9372092Y4050029D01*
X9366707Y4051960D01*
X9360408Y4052671D01*
X9181592Y4052671D01*
X9175292Y4051960D01*
X9169908Y4050029D01*
X9165031Y4046982D01*
X9161018Y4042968D01*
X9157970Y4038092D01*
X9156039Y4032707D01*
X9155328Y4026408D01*
X9155328Y4012793D01*
X9154566Y4008932D01*
X9152382Y4005630D01*
X9149080Y4003446D01*
X9145168Y4002633D01*
X8634831Y4002633D01*
X8630920Y4003446D01*
X8627618Y4005630D01*
X8625433Y4008932D01*
X8624671Y4012793D01*
X8624671Y4026408D01*
X8623960Y4032707D01*
X8622080Y4038092D01*
X8618982Y4042968D01*
X8614968Y4046982D01*
X8610092Y4050029D01*
X8604707Y4051960D01*
X8598408Y4052671D01*
X8419592Y4052671D01*
X8413292Y4051960D01*
X8407908Y4050029D01*
X8403031Y4046982D01*
X8399018Y4042968D01*
X8395970Y4038092D01*
X8394039Y4032707D01*
X8393328Y4026408D01*
X8393328Y3847592D01*
X8394039Y3841292D01*
X8395970Y3835908D01*
X8399018Y3831031D01*
X8403031Y3827018D01*
X8407908Y3823919D01*
X8413292Y3822039D01*
X8419592Y3821328D01*
X8598408Y3821328D01*
X8604707Y3822039D01*
X8610092Y3823919D01*
X8614968Y3827018D01*
X8618982Y3831031D01*
X8622080Y3835908D01*
X8623960Y3841292D01*
X8624671Y3847592D01*
X8624671Y3861206D01*
X8625433Y3865067D01*
X8627618Y3868369D01*
X8630920Y3870553D01*
X8634831Y3871366D01*
X9145168Y3871366D01*
X9149080Y3870553D01*
X9152382Y3868369D01*
X9154566Y3865067D01*
X9155328Y3861206D01*
X9155328Y3847592D01*
X9156039Y3841292D01*
X9157970Y3835908D01*
X9161018Y3831031D01*
X9165031Y3827018D01*
X9169908Y3823919D01*
X9175292Y3822039D01*
X9181592Y3821328D01*
X9195206Y3821328D01*
X9199067Y3820566D01*
X9202369Y3818382D01*
X9204553Y3815079D01*
X9205366Y3811168D01*
X9205366Y3808831D01*
X9204553Y3804920D01*
X9202369Y3801618D01*
X9199067Y3799433D01*
X9195206Y3798671D01*
X9181592Y3798671D01*
X9175292Y3797960D01*
X9169908Y3796029D01*
X9165031Y3792982D01*
X9161018Y3788968D01*
X9157970Y3784092D01*
X9156039Y3778707D01*
X9155328Y3772408D01*
X9155328Y3593592D01*
X9156039Y3587292D01*
X9157970Y3581908D01*
X9161018Y3577031D01*
X9165031Y3573018D01*
X9169908Y3569919D01*
X9175292Y3568039D01*
X9181592Y3567328D01*
X9195206Y3567328D01*
X9199067Y3566566D01*
X9202369Y3564382D01*
X9204553Y3561079D01*
X9205366Y3557168D01*
X9205366Y3554831D01*
X9204553Y3550920D01*
X9202369Y3547618D01*
X9199067Y3545433D01*
X9195206Y3544671D01*
X9181592Y3544671D01*
X9175292Y3543960D01*
X9169908Y3542029D01*
X9165031Y3538982D01*
X9161018Y3534968D01*
X9157970Y3530092D01*
X9156039Y3524707D01*
X9155328Y3518408D01*
X9155328Y3339592D01*
X9156039Y3333292D01*
X9157970Y3327908D01*
X9161018Y3323031D01*
X9165031Y3319018D01*
X9169908Y3315919D01*
X9175292Y3314039D01*
G37*
G36*
X5599328Y3480358D02*
G01*
X5663641Y3480358D01*
X5663641Y3544671D01*
X5625592Y3544671D01*
X5619292Y3543960D01*
X5613908Y3542029D01*
X5609031Y3538982D01*
X5605018Y3534968D01*
X5601970Y3530092D01*
X5600039Y3524707D01*
X5599328Y3518408D01*
G37*
G36*
X6782358Y3480358D02*
G01*
X6846671Y3480358D01*
X6846671Y3518408D01*
X6845960Y3524707D01*
X6844080Y3530092D01*
X6840981Y3534968D01*
X6836968Y3538982D01*
X6832092Y3542029D01*
X6826707Y3543960D01*
X6820408Y3544671D01*
X6782358Y3544671D01*
G37*
G36*
X5766358Y3480358D02*
G01*
X5830671Y3480358D01*
X5830671Y3518408D01*
X5829960Y3524707D01*
X5828080Y3530092D01*
X5824982Y3534968D01*
X5820968Y3538982D01*
X5816092Y3542029D01*
X5810707Y3543960D01*
X5804408Y3544671D01*
X5766358Y3544671D01*
G37*
G36*
X6615328Y3480358D02*
G01*
X6679641Y3480358D01*
X6679641Y3544671D01*
X6641592Y3544671D01*
X6635292Y3543960D01*
X6629908Y3542029D01*
X6625031Y3538982D01*
X6621018Y3534968D01*
X6617970Y3530092D01*
X6616039Y3524707D01*
X6615328Y3518408D01*
G37*
G36*
X9943592Y3567328D02*
G01*
X9981641Y3567328D01*
X9981641Y3631641D01*
X9917328Y3631641D01*
X9917328Y3593592D01*
X9918039Y3587292D01*
X9919970Y3581908D01*
X9923018Y3577031D01*
X9927031Y3573018D01*
X9931908Y3569919D01*
X9937292Y3568039D01*
G37*
G36*
X5625592Y3567328D02*
G01*
X5804408Y3567328D01*
X5810707Y3568039D01*
X5816092Y3569919D01*
X5820968Y3573018D01*
X5824982Y3577031D01*
X5828080Y3581908D01*
X5829960Y3587292D01*
X5830671Y3593592D01*
X5830671Y3607206D01*
X5831433Y3611067D01*
X5833618Y3614369D01*
X5836920Y3616553D01*
X5840831Y3617366D01*
X5968593Y3617366D01*
X5979261Y3618179D01*
X5989269Y3620566D01*
X5998768Y3624529D01*
X6007557Y3629914D01*
X6015685Y3636873D01*
X6197244Y3818382D01*
X6200495Y3820566D01*
X6204407Y3821328D01*
X6312408Y3821328D01*
X6318707Y3822039D01*
X6324092Y3823919D01*
X6328968Y3827018D01*
X6332982Y3831031D01*
X6336080Y3835908D01*
X6337960Y3841292D01*
X6338671Y3847592D01*
X6338671Y4026408D01*
X6337960Y4032707D01*
X6336080Y4038092D01*
X6332982Y4042968D01*
X6328968Y4046982D01*
X6324092Y4050029D01*
X6318707Y4051960D01*
X6312408Y4052671D01*
X6133592Y4052671D01*
X6127292Y4051960D01*
X6121908Y4050029D01*
X6117031Y4046982D01*
X6113018Y4042968D01*
X6109970Y4038092D01*
X6108039Y4032707D01*
X6107328Y4026408D01*
X6107328Y3918407D01*
X6106566Y3914495D01*
X6104382Y3911193D01*
X5944768Y3751630D01*
X5941466Y3749446D01*
X5937605Y3748633D01*
X5840831Y3748633D01*
X5836920Y3749446D01*
X5833618Y3751630D01*
X5831433Y3754932D01*
X5830671Y3758793D01*
X5830671Y3772408D01*
X5829960Y3778707D01*
X5828080Y3784092D01*
X5824982Y3788968D01*
X5820968Y3792982D01*
X5816092Y3796029D01*
X5810707Y3797960D01*
X5804408Y3798671D01*
X5625592Y3798671D01*
X5619292Y3797960D01*
X5613908Y3796029D01*
X5609031Y3792982D01*
X5605018Y3788968D01*
X5601970Y3784092D01*
X5600039Y3778707D01*
X5599328Y3772408D01*
X5599328Y3593592D01*
X5600039Y3587292D01*
X5601970Y3581908D01*
X5605018Y3577031D01*
X5609031Y3573018D01*
X5613908Y3569919D01*
X5619292Y3568039D01*
G37*
G36*
X9917328Y3734358D02*
G01*
X9981641Y3734358D01*
X9981641Y3798671D01*
X9943592Y3798671D01*
X9937292Y3797960D01*
X9931908Y3796029D01*
X9927031Y3792982D01*
X9923018Y3788968D01*
X9919970Y3784092D01*
X9918039Y3778707D01*
X9917328Y3772408D01*
G37*
G36*
X9689592Y3821328D02*
G01*
X9727641Y3821328D01*
X9727641Y3885641D01*
X9663328Y3885641D01*
X9663328Y3847592D01*
X9664039Y3841292D01*
X9665970Y3835908D01*
X9669018Y3831031D01*
X9673031Y3827018D01*
X9677908Y3823919D01*
X9683292Y3822039D01*
G37*
G36*
X9830358Y3821328D02*
G01*
X9868408Y3821328D01*
X9874707Y3822039D01*
X9880092Y3823919D01*
X9884968Y3827018D01*
X9888982Y3831031D01*
X9892080Y3835908D01*
X9893960Y3841292D01*
X9894671Y3847592D01*
X9894671Y3885641D01*
X9830358Y3885641D01*
G37*
G36*
X7149592Y3821328D02*
G01*
X7328408Y3821328D01*
X7334707Y3822039D01*
X7340092Y3823919D01*
X7344968Y3827018D01*
X7348981Y3831031D01*
X7352080Y3835908D01*
X7353960Y3841292D01*
X7354671Y3847592D01*
X7354671Y3861206D01*
X7355433Y3865067D01*
X7357618Y3868369D01*
X7360920Y3870553D01*
X7364831Y3871366D01*
X7621168Y3871366D01*
X7625080Y3870553D01*
X7628381Y3868369D01*
X7630566Y3865067D01*
X7631328Y3861206D01*
X7631328Y3847592D01*
X7632039Y3841292D01*
X7633970Y3835908D01*
X7637018Y3831031D01*
X7641031Y3827018D01*
X7645908Y3823919D01*
X7651292Y3822039D01*
X7657592Y3821328D01*
X7836408Y3821328D01*
X7842707Y3822039D01*
X7848092Y3823919D01*
X7852968Y3827018D01*
X7856981Y3831031D01*
X7860080Y3835908D01*
X7861960Y3841292D01*
X7862671Y3847592D01*
X7862671Y4026408D01*
X7861960Y4032707D01*
X7860080Y4038092D01*
X7856981Y4042968D01*
X7852968Y4046982D01*
X7848092Y4050029D01*
X7842707Y4051960D01*
X7836408Y4052671D01*
X7657592Y4052671D01*
X7651292Y4051960D01*
X7645908Y4050029D01*
X7641031Y4046982D01*
X7637018Y4042968D01*
X7633970Y4038092D01*
X7632039Y4032707D01*
X7631328Y4026408D01*
X7631328Y4012793D01*
X7630566Y4008932D01*
X7628381Y4005630D01*
X7625080Y4003446D01*
X7621168Y4002633D01*
X7364831Y4002633D01*
X7360920Y4003446D01*
X7357618Y4005630D01*
X7355433Y4008932D01*
X7354671Y4012793D01*
X7354671Y4026408D01*
X7353960Y4032707D01*
X7352080Y4038092D01*
X7348981Y4042968D01*
X7344968Y4046982D01*
X7340092Y4050029D01*
X7334707Y4051960D01*
X7328408Y4052671D01*
X7149592Y4052671D01*
X7143292Y4051960D01*
X7137908Y4050029D01*
X7133031Y4046982D01*
X7129018Y4042968D01*
X7125970Y4038092D01*
X7124039Y4032707D01*
X7123328Y4026408D01*
X7123328Y3847592D01*
X7124039Y3841292D01*
X7125970Y3835908D01*
X7129018Y3831031D01*
X7133031Y3827018D01*
X7137908Y3823919D01*
X7143292Y3822039D01*
G37*
G36*
X9663328Y3988358D02*
G01*
X9727641Y3988358D01*
X9727641Y4052671D01*
X9689592Y4052671D01*
X9683292Y4051960D01*
X9677908Y4050029D01*
X9673031Y4046982D01*
X9669018Y4042968D01*
X9665970Y4038092D01*
X9664039Y4032707D01*
X9663328Y4026408D01*
G37*
G36*
X9830358Y3988358D02*
G01*
X9894671Y3988358D01*
X9894671Y4026408D01*
X9893960Y4032707D01*
X9892080Y4038092D01*
X9888982Y4042968D01*
X9884968Y4046982D01*
X9880092Y4050029D01*
X9874707Y4051960D01*
X9868408Y4052671D01*
X9830358Y4052671D01*
G37*
G36*
X9910521Y4129735D02*
G01*
X9928555Y4131106D01*
X9946335Y4134358D01*
X9963708Y4139387D01*
X9980472Y4146245D01*
X9996424Y4154728D01*
X10011410Y4164837D01*
X10025329Y4176420D01*
X10037927Y4189374D01*
X10049154Y4203547D01*
X10058857Y4218787D01*
X10066934Y4234942D01*
X10073335Y4251909D01*
X10077907Y4269384D01*
X10080701Y4287215D01*
X10081615Y4305300D01*
X10080701Y4323334D01*
X10077907Y4341215D01*
X10073335Y4358690D01*
X10066934Y4375658D01*
X10058857Y4391812D01*
X10049154Y4407052D01*
X10037927Y4421225D01*
X10025329Y4434179D01*
X10011410Y4445762D01*
X9996424Y4455871D01*
X9980472Y4464354D01*
X9963708Y4471212D01*
X9946335Y4476242D01*
X9928555Y4479493D01*
X9910521Y4480864D01*
X9892436Y4480407D01*
X9874504Y4478070D01*
X9856927Y4473956D01*
X9839807Y4468012D01*
X9823450Y4460341D01*
X9807956Y4451045D01*
X9793478Y4440174D01*
X9780219Y4427880D01*
X9768281Y4414316D01*
X9757816Y4399584D01*
X9748875Y4383836D01*
X9741662Y4367276D01*
X9736175Y4350054D01*
X9732467Y4332325D01*
X9730587Y4314342D01*
X9730587Y4296257D01*
X9732467Y4278274D01*
X9736175Y4260545D01*
X9741662Y4243324D01*
X9748875Y4226763D01*
X9757816Y4211015D01*
X9768281Y4196283D01*
X9780219Y4182719D01*
X9793478Y4170426D01*
X9807956Y4159554D01*
X9823450Y4150258D01*
X9839807Y4142587D01*
X9856927Y4136644D01*
X9874504Y4132529D01*
X9892436Y4130192D01*
G37*
G36*
X5719521Y4142435D02*
G01*
X5737555Y4143806D01*
X5755335Y4147058D01*
X5772708Y4152087D01*
X5789472Y4158945D01*
X5805424Y4167428D01*
X5820410Y4177537D01*
X5834329Y4189120D01*
X5846927Y4202074D01*
X5858154Y4216247D01*
X5867857Y4231487D01*
X5875934Y4247642D01*
X5882335Y4264609D01*
X5886907Y4282084D01*
X5889701Y4299915D01*
X5890615Y4318000D01*
X5889701Y4336034D01*
X5886907Y4353915D01*
X5882335Y4371390D01*
X5875934Y4388358D01*
X5867857Y4404512D01*
X5858154Y4419752D01*
X5846927Y4433925D01*
X5834329Y4446879D01*
X5820410Y4458462D01*
X5805424Y4468571D01*
X5789472Y4477054D01*
X5772708Y4483912D01*
X5755335Y4488942D01*
X5737555Y4492193D01*
X5719521Y4493564D01*
X5701436Y4493107D01*
X5683504Y4490770D01*
X5665927Y4486656D01*
X5648807Y4480712D01*
X5632450Y4473041D01*
X5616956Y4463745D01*
X5602478Y4452874D01*
X5589219Y4440580D01*
X5577281Y4427016D01*
X5566816Y4412284D01*
X5557875Y4396536D01*
X5550662Y4379976D01*
X5545175Y4362754D01*
X5541467Y4345025D01*
X5539587Y4327042D01*
X5539587Y4308957D01*
X5541467Y4290974D01*
X5545175Y4273245D01*
X5550662Y4256024D01*
X5557875Y4239463D01*
X5566816Y4223715D01*
X5577281Y4208983D01*
X5589219Y4195419D01*
X5602478Y4183126D01*
X5616956Y4172254D01*
X5632450Y4162958D01*
X5648807Y4155287D01*
X5665927Y4149344D01*
X5683504Y4145229D01*
X5701436Y4142892D01*
G37*

%LPD*%
D12*
X5715000Y1231900D02*
G01*
X5834125Y1231900D01*
X5999225Y1397000D01*
X7493000Y1397000D02*
G01*
X7493000Y1905000D01*
X7493000Y127000D02*
G01*
X7493000Y635000D01*
X7747000Y635000D02*
G01*
X7747000Y127000D01*
X7747000Y1905000D02*
G01*
X7747000Y1397000D01*
X8001000Y622300D02*
G01*
X8001000Y127000D01*
X8001000Y1905000D02*
G01*
X8001000Y1397000D01*
X7239000Y2921000D02*
G01*
X8001000Y2921000D01*
X5715000Y3175000D02*
G01*
X5969000Y3175000D01*
X6223000Y2921000D01*
X5715000Y3683000D02*
G01*
X5969000Y3683000D01*
X6223000Y3937000D01*
X8001000Y4445000D02*
G01*
X8001000Y3429000D01*
X8255000Y3429000D02*
G01*
X8255000Y4445000D01*
X7239000Y3937000D02*
G01*
X7747000Y3937000D01*
X8509000Y3937000D02*
G01*
X9271000Y3937000D01*
X9271000Y3683000D02*
G01*
X9271000Y3937000D01*
X9271000Y3429000D02*
G01*
X9271000Y3683000D01*
X8763000Y2921000D02*
G01*
X9017000Y2921000D01*
X9017000Y2921000D02*
G01*
X9017000Y3175000D01*
X9017000Y3429000D02*
G01*
X9017000Y3175000D01*
X6477000Y3429000D02*
G01*
X6477000Y2667000D01*
X5461000Y2667000D01*
X5461000Y1905000D01*
X5969000Y1397000D01*
X6477000Y1397000D01*
X7239000Y3429000D02*
G01*
X7239000Y3175000D01*
X6731000Y3175000D01*
X6731000Y2413000D01*
X5715000Y2413000D01*
X8255000Y1905000D02*
G01*
X8255000Y1397000D01*
X8509000Y1905000D02*
G01*
X8509000Y1397000D01*
X8255000Y635000D02*
G01*
X8255000Y127000D01*
X8509000Y635000D02*
G01*
X8509000Y127000D01*
X9271000Y1905000D02*
G01*
X9271000Y127000D01*
G36*
X9943000Y3518999D02*
G01*
X10122999Y3518999D01*
X10122999Y3339000D01*
X9943000Y3339000D01*
G37*
G36*
X9689000Y3518999D02*
G01*
X9868999Y3518999D01*
X9868999Y3339000D01*
X9689000Y3339000D01*
G37*
G36*
X9181000Y3518999D02*
G01*
X9360999Y3518999D01*
X9360999Y3339000D01*
X9181000Y3339000D01*
G37*
G36*
X9435000Y3518999D02*
G01*
X9614999Y3518999D01*
X9614999Y3339000D01*
X9435000Y3339000D01*
G37*
G36*
X8927000Y3518999D02*
G01*
X9106999Y3518999D01*
X9106999Y3339000D01*
X8927000Y3339000D01*
G37*
G36*
X8673000Y3518999D02*
G01*
X8852999Y3518999D01*
X8852999Y3339000D01*
X8673000Y3339000D01*
G37*
G36*
X8419000Y3518999D02*
G01*
X8598999Y3518999D01*
X8598999Y3339000D01*
X8419000Y3339000D01*
G37*
G36*
X8165000Y3518999D02*
G01*
X8344999Y3518999D01*
X8344999Y3339000D01*
X8165000Y3339000D01*
G37*
G36*
X7911000Y3518999D02*
G01*
X8090999Y3518999D01*
X8090999Y3339000D01*
X7911000Y3339000D01*
G37*
G36*
X7657000Y3518999D02*
G01*
X7836999Y3518999D01*
X7836999Y3339000D01*
X7657000Y3339000D01*
G37*
G36*
X7403000Y3518999D02*
G01*
X7582999Y3518999D01*
X7582999Y3339000D01*
X7403000Y3339000D01*
G37*
G36*
X7149000Y3518999D02*
G01*
X7328999Y3518999D01*
X7328999Y3339000D01*
X7149000Y3339000D01*
G37*
G36*
X6895000Y3518999D02*
G01*
X7074999Y3518999D01*
X7074999Y3339000D01*
X6895000Y3339000D01*
G37*
G36*
X6641000Y3518999D02*
G01*
X6820999Y3518999D01*
X6820999Y3339000D01*
X6641000Y3339000D01*
G37*
G36*
X6387000Y3518999D02*
G01*
X6566999Y3518999D01*
X6566999Y3339000D01*
X6387000Y3339000D01*
G37*
G36*
X6387000Y1994999D02*
G01*
X6566999Y1994999D01*
X6566999Y1815000D01*
X6387000Y1815000D01*
G37*
G36*
X6641000Y1994999D02*
G01*
X6820999Y1994999D01*
X6820999Y1815000D01*
X6641000Y1815000D01*
G37*
G36*
X6895000Y1994999D02*
G01*
X7074999Y1994999D01*
X7074999Y1815000D01*
X6895000Y1815000D01*
G37*
G36*
X7149000Y1994999D02*
G01*
X7328999Y1994999D01*
X7328999Y1815000D01*
X7149000Y1815000D01*
G37*
G36*
X7403000Y1994999D02*
G01*
X7582999Y1994999D01*
X7582999Y1815000D01*
X7403000Y1815000D01*
G37*
G36*
X7657000Y1994999D02*
G01*
X7836999Y1994999D01*
X7836999Y1815000D01*
X7657000Y1815000D01*
G37*
G36*
X7911000Y1994999D02*
G01*
X8090999Y1994999D01*
X8090999Y1815000D01*
X7911000Y1815000D01*
G37*
G36*
X8165000Y1994999D02*
G01*
X8344999Y1994999D01*
X8344999Y1815000D01*
X8165000Y1815000D01*
G37*
G36*
X8419000Y1994999D02*
G01*
X8598999Y1994999D01*
X8598999Y1815000D01*
X8419000Y1815000D01*
G37*
G36*
X8673000Y1994999D02*
G01*
X8852999Y1994999D01*
X8852999Y1815000D01*
X8673000Y1815000D01*
G37*
G36*
X8927000Y1994999D02*
G01*
X9106999Y1994999D01*
X9106999Y1815000D01*
X8927000Y1815000D01*
G37*
G36*
X9181000Y1994999D02*
G01*
X9360999Y1994999D01*
X9360999Y1815000D01*
X9181000Y1815000D01*
G37*
G36*
X9435000Y1994999D02*
G01*
X9614999Y1994999D01*
X9614999Y1815000D01*
X9435000Y1815000D01*
G37*
G36*
X9689000Y1994999D02*
G01*
X9868999Y1994999D01*
X9868999Y1815000D01*
X9689000Y1815000D01*
G37*
G36*
X9943000Y1994999D02*
G01*
X10122999Y1994999D01*
X10122999Y1815000D01*
X9943000Y1815000D01*
G37*
G36*
X9943000Y3772999D02*
G01*
X10122999Y3772999D01*
X10122999Y3593000D01*
X9943000Y3593000D01*
G37*
G36*
X9181000Y3772999D02*
G01*
X9360999Y3772999D01*
X9360999Y3593000D01*
X9181000Y3593000D01*
G37*
G36*
X9181000Y4026999D02*
G01*
X9360999Y4026999D01*
X9360999Y3847000D01*
X9181000Y3847000D01*
G37*
G36*
X9689000Y4026999D02*
G01*
X9868999Y4026999D01*
X9868999Y3847000D01*
X9689000Y3847000D01*
G37*
G36*
X8165000Y4534999D02*
G01*
X8344999Y4534999D01*
X8344999Y4355000D01*
X8165000Y4355000D01*
G37*
G36*
X7911000Y4534999D02*
G01*
X8090999Y4534999D01*
X8090999Y4355000D01*
X7911000Y4355000D01*
G37*
G36*
X8419000Y4026999D02*
G01*
X8598999Y4026999D01*
X8598999Y3847000D01*
X8419000Y3847000D01*
G37*
G36*
X7657000Y4026999D02*
G01*
X7836999Y4026999D01*
X7836999Y3847000D01*
X7657000Y3847000D01*
G37*
G36*
X6133000Y4026999D02*
G01*
X6312999Y4026999D01*
X6312999Y3847000D01*
X6133000Y3847000D01*
G37*
G36*
X7149000Y4026999D02*
G01*
X7328999Y4026999D01*
X7328999Y3847000D01*
X7149000Y3847000D01*
G37*
G36*
X6133000Y3010999D02*
G01*
X6312999Y3010999D01*
X6312999Y2831000D01*
X6133000Y2831000D01*
G37*
G36*
X7149000Y3010999D02*
G01*
X7328999Y3010999D01*
X7328999Y2831000D01*
X7149000Y2831000D01*
G37*
G36*
X8927000Y3010999D02*
G01*
X9106999Y3010999D01*
X9106999Y2831000D01*
X8927000Y2831000D01*
G37*
G36*
X8927000Y3264999D02*
G01*
X9106999Y3264999D01*
X9106999Y3085000D01*
X8927000Y3085000D01*
G37*
G36*
X8673000Y3010999D02*
G01*
X8852999Y3010999D01*
X8852999Y2831000D01*
X8673000Y2831000D01*
G37*
G36*
X7911000Y3010999D02*
G01*
X8090999Y3010999D01*
X8090999Y2831000D01*
X7911000Y2831000D01*
G37*
G36*
X5625000Y3772999D02*
G01*
X5804999Y3772999D01*
X5804999Y3593000D01*
X5625000Y3593000D01*
G37*
G36*
X5625000Y3518999D02*
G01*
X5804999Y3518999D01*
X5804999Y3339000D01*
X5625000Y3339000D01*
G37*
G36*
X5625000Y3264999D02*
G01*
X5804999Y3264999D01*
X5804999Y3085000D01*
X5625000Y3085000D01*
G37*
G36*
X5625000Y2502999D02*
G01*
X5804999Y2502999D01*
X5804999Y2323000D01*
X5625000Y2323000D01*
G37*
G36*
X5625000Y2248999D02*
G01*
X5804999Y2248999D01*
X5804999Y2069000D01*
X5625000Y2069000D01*
G37*
G36*
X6387000Y1486999D02*
G01*
X6566999Y1486999D01*
X6566999Y1307000D01*
X6387000Y1307000D01*
G37*
G36*
X6641000Y1474299D02*
G01*
X6820999Y1474299D01*
X6820999Y1294300D01*
X6641000Y1294300D01*
G37*
G36*
X6907700Y1474299D02*
G01*
X7087699Y1474299D01*
X7087699Y1294300D01*
X6907700Y1294300D01*
G37*
G36*
X7149000Y1486999D02*
G01*
X7328999Y1486999D01*
X7328999Y1307000D01*
X7149000Y1307000D01*
G37*
G36*
X7403000Y1486999D02*
G01*
X7582999Y1486999D01*
X7582999Y1307000D01*
X7403000Y1307000D01*
G37*
G36*
X7657000Y1486999D02*
G01*
X7836999Y1486999D01*
X7836999Y1307000D01*
X7657000Y1307000D01*
G37*
G36*
X7911000Y1486999D02*
G01*
X8090999Y1486999D01*
X8090999Y1307000D01*
X7911000Y1307000D01*
G37*
G36*
X8165000Y1486999D02*
G01*
X8344999Y1486999D01*
X8344999Y1307000D01*
X8165000Y1307000D01*
G37*
G36*
X8419000Y1486999D02*
G01*
X8598999Y1486999D01*
X8598999Y1307000D01*
X8419000Y1307000D01*
G37*
G36*
X8419000Y724999D02*
G01*
X8598999Y724999D01*
X8598999Y545000D01*
X8419000Y545000D01*
G37*
G36*
X8165000Y724999D02*
G01*
X8344999Y724999D01*
X8344999Y545000D01*
X8165000Y545000D01*
G37*
G36*
X7911000Y712299D02*
G01*
X8090999Y712299D01*
X8090999Y532300D01*
X7911000Y532300D01*
G37*
G36*
X7657000Y724999D02*
G01*
X7836999Y724999D01*
X7836999Y545000D01*
X7657000Y545000D01*
G37*
G36*
X7403000Y724999D02*
G01*
X7582999Y724999D01*
X7582999Y545000D01*
X7403000Y545000D01*
G37*
G36*
X7149000Y724999D02*
G01*
X7328999Y724999D01*
X7328999Y545000D01*
X7149000Y545000D01*
G37*
G36*
X6895000Y724999D02*
G01*
X7074999Y724999D01*
X7074999Y545000D01*
X6895000Y545000D01*
G37*
G36*
X6641000Y724999D02*
G01*
X6820999Y724999D01*
X6820999Y545000D01*
X6641000Y545000D01*
G37*
G36*
X6387000Y724999D02*
G01*
X6566999Y724999D01*
X6566999Y545000D01*
X6387000Y545000D01*
G37*
G36*
X8419000Y216999D02*
G01*
X8598999Y216999D01*
X8598999Y37000D01*
X8419000Y37000D01*
G37*
G36*
X8165000Y216999D02*
G01*
X8344999Y216999D01*
X8344999Y37000D01*
X8165000Y37000D01*
G37*
G36*
X7911000Y216999D02*
G01*
X8090999Y216999D01*
X8090999Y37000D01*
X7911000Y37000D01*
G37*
G36*
X8927000Y216999D02*
G01*
X9106999Y216999D01*
X9106999Y37000D01*
X8927000Y37000D01*
G37*
G36*
X9181000Y216999D02*
G01*
X9360999Y216999D01*
X9360999Y37000D01*
X9181000Y37000D01*
G37*
G36*
X9689000Y3264999D02*
G01*
X9868999Y3264999D01*
X9868999Y3085000D01*
X9689000Y3085000D01*
G37*
G36*
X9435000Y3010999D02*
G01*
X9614999Y3010999D01*
X9614999Y2831000D01*
X9435000Y2831000D01*
G37*
G36*
X7657000Y216999D02*
G01*
X7836999Y216999D01*
X7836999Y37000D01*
X7657000Y37000D01*
G37*
G36*
X7403000Y216999D02*
G01*
X7582999Y216999D01*
X7582999Y37000D01*
X7403000Y37000D01*
G37*
G36*
X7149000Y216999D02*
G01*
X7328999Y216999D01*
X7328999Y37000D01*
X7149000Y37000D01*
G37*
G36*
X5625000Y1080599D02*
G01*
X5804999Y1080599D01*
X5804999Y900600D01*
X5625000Y900600D01*
G37*
G36*
X5625000Y1321899D02*
G01*
X5804999Y1321899D01*
X5804999Y1141900D01*
X5625000Y1141900D01*
G37*
M02*
