M48
METRIC,LZ,000.000
;FILE_FORMAT=3:3
;TYPE=PLATED
;Layer: Drill PTH
;EasyEDA v6.4.19.5, 2021-06-09T19:17:38+02:00
;94c66fb5ae3c4a55bd9af1bff0602b37,3a21a940fc264e4589df007fb316c5b6,10
;Gerber Generator version 0.2
;Holesize 1 = 0.915 mm
T01C0.915
%
G05
G90
T01
X100330Y034290
X097790Y034290
X092710Y034290
X095250Y034290
X090170Y034290
X087630Y034290
X085090Y034290
X082550Y034290
X080010Y034290
X077470Y034290
X074930Y034290
X072390Y034290
X069850Y034290
X067310Y034290
X064770Y034290
X064770Y019050
X067310Y019050
X069850Y019050
X072390Y019050
X074930Y019050
X077470Y019050
X080010Y019050
X082550Y019050
X085090Y019050
X087630Y019050
X090170Y019050
X092710Y019050
X095250Y019050
X097790Y019050
X100330Y019050
X100330Y036830
X092710Y036830
X092710Y039370
X097790Y039370
X082550Y044450
X080010Y044450
X085090Y039370
X077470Y039370
X062230Y039370
X072390Y039370
X062230Y029210
X072390Y029210
X090170Y029210
X090170Y031750
X087630Y029210
X080010Y029210
X057150Y036830
X057150Y034290
X057150Y031750
X057150Y024130
X057150Y021590
X064770Y013970
X067310Y013843
X069977Y013843
X072390Y013970
X074930Y013970
X077470Y013970
X080010Y013970
X082550Y013970
X085090Y013970
X085090Y006350
X082550Y006350
X080010Y006223
X077470Y006350
X074930Y006350
X072390Y006350
X069850Y006350
X067310Y006350
X064770Y006350
X085090Y001270
X082550Y001270
X080010Y001270
X090170Y001270
X092710Y001270
X097790Y031750
X095250Y029210
X077470Y001270
X074930Y001270
X072390Y001270
X057150Y009906
X057150Y012319
M30
