G04 Layer: TopSolderMaskLayer*
G04 EasyEDA v6.4.19.5, 2021-06-09T19:17:38+02:00*
G04 94c66fb5ae3c4a55bd9af1bff0602b37,3a21a940fc264e4589df007fb316c5b6,10*
G04 Gerber Generator version 0.2*
G04 Scale: 100 percent, Rotated: No, Reflected: No *
G04 Dimensions in millimeters *
G04 leading zeros omitted , absolute positions ,4 integer and 5 decimal *
%FSLAX45Y45*%
%MOMM*%

%ADD10C,0.0001*%

%LPD*%
G36*
X9932924Y3328923D02*
G01*
X9932924Y3529076D01*
X10133075Y3529076D01*
X10133075Y3328923D01*
G37*
G36*
X9678924Y3328923D02*
G01*
X9678924Y3529076D01*
X9879075Y3529076D01*
X9879075Y3328923D01*
G37*
G36*
X9170924Y3328923D02*
G01*
X9170924Y3529076D01*
X9371075Y3529076D01*
X9371075Y3328923D01*
G37*
G36*
X9424924Y3328923D02*
G01*
X9424924Y3529076D01*
X9625075Y3529076D01*
X9625075Y3328923D01*
G37*
G36*
X8916924Y3328923D02*
G01*
X8916924Y3529076D01*
X9117075Y3529076D01*
X9117075Y3328923D01*
G37*
G36*
X8662924Y3328923D02*
G01*
X8662924Y3529076D01*
X8863075Y3529076D01*
X8863075Y3328923D01*
G37*
G36*
X8408924Y3328923D02*
G01*
X8408924Y3529076D01*
X8609075Y3529076D01*
X8609075Y3328923D01*
G37*
G36*
X8154924Y3328923D02*
G01*
X8154924Y3529076D01*
X8355075Y3529076D01*
X8355075Y3328923D01*
G37*
G36*
X7900924Y3328923D02*
G01*
X7900924Y3529076D01*
X8101075Y3529076D01*
X8101075Y3328923D01*
G37*
G36*
X7646924Y3328923D02*
G01*
X7646924Y3529076D01*
X7847075Y3529076D01*
X7847075Y3328923D01*
G37*
G36*
X7392924Y3328923D02*
G01*
X7392924Y3529076D01*
X7593075Y3529076D01*
X7593075Y3328923D01*
G37*
G36*
X7138924Y3328923D02*
G01*
X7138924Y3529076D01*
X7339075Y3529076D01*
X7339075Y3328923D01*
G37*
G36*
X6884924Y3328923D02*
G01*
X6884924Y3529076D01*
X7085075Y3529076D01*
X7085075Y3328923D01*
G37*
G36*
X6630924Y3328923D02*
G01*
X6630924Y3529076D01*
X6831075Y3529076D01*
X6831075Y3328923D01*
G37*
G36*
X6376924Y3328923D02*
G01*
X6376924Y3529076D01*
X6577075Y3529076D01*
X6577075Y3328923D01*
G37*
G36*
X6376924Y1804923D02*
G01*
X6376924Y2005076D01*
X6577075Y2005076D01*
X6577075Y1804923D01*
G37*
G36*
X6630924Y1804923D02*
G01*
X6630924Y2005076D01*
X6831075Y2005076D01*
X6831075Y1804923D01*
G37*
G36*
X6884924Y1804923D02*
G01*
X6884924Y2005076D01*
X7085075Y2005076D01*
X7085075Y1804923D01*
G37*
G36*
X7138924Y1804923D02*
G01*
X7138924Y2005076D01*
X7339075Y2005076D01*
X7339075Y1804923D01*
G37*
G36*
X7392924Y1804923D02*
G01*
X7392924Y2005076D01*
X7593075Y2005076D01*
X7593075Y1804923D01*
G37*
G36*
X7646924Y1804923D02*
G01*
X7646924Y2005076D01*
X7847075Y2005076D01*
X7847075Y1804923D01*
G37*
G36*
X7900924Y1804923D02*
G01*
X7900924Y2005076D01*
X8101075Y2005076D01*
X8101075Y1804923D01*
G37*
G36*
X8154924Y1804923D02*
G01*
X8154924Y2005076D01*
X8355075Y2005076D01*
X8355075Y1804923D01*
G37*
G36*
X8408924Y1804923D02*
G01*
X8408924Y2005076D01*
X8609075Y2005076D01*
X8609075Y1804923D01*
G37*
G36*
X8662924Y1804923D02*
G01*
X8662924Y2005076D01*
X8863075Y2005076D01*
X8863075Y1804923D01*
G37*
G36*
X8916924Y1804923D02*
G01*
X8916924Y2005076D01*
X9117075Y2005076D01*
X9117075Y1804923D01*
G37*
G36*
X9170924Y1804923D02*
G01*
X9170924Y2005076D01*
X9371075Y2005076D01*
X9371075Y1804923D01*
G37*
G36*
X9424924Y1804923D02*
G01*
X9424924Y2005076D01*
X9625075Y2005076D01*
X9625075Y1804923D01*
G37*
G36*
X9678924Y1804923D02*
G01*
X9678924Y2005076D01*
X9879075Y2005076D01*
X9879075Y1804923D01*
G37*
G36*
X9932924Y1804923D02*
G01*
X9932924Y2005076D01*
X10133075Y2005076D01*
X10133075Y1804923D01*
G37*
G36*
X9932924Y3582923D02*
G01*
X9932924Y3783076D01*
X10133075Y3783076D01*
X10133075Y3582923D01*
G37*
G36*
X9170924Y3582923D02*
G01*
X9170924Y3783076D01*
X9371075Y3783076D01*
X9371075Y3582923D01*
G37*
G36*
X9170924Y3836923D02*
G01*
X9170924Y4037076D01*
X9371075Y4037076D01*
X9371075Y3836923D01*
G37*
G36*
X9678924Y3836923D02*
G01*
X9678924Y4037076D01*
X9879075Y4037076D01*
X9879075Y3836923D01*
G37*
G36*
X8154924Y4344923D02*
G01*
X8154924Y4545076D01*
X8355075Y4545076D01*
X8355075Y4344923D01*
G37*
G36*
X7900924Y4344923D02*
G01*
X7900924Y4545076D01*
X8101075Y4545076D01*
X8101075Y4344923D01*
G37*
G36*
X8408924Y3836923D02*
G01*
X8408924Y4037076D01*
X8609075Y4037076D01*
X8609075Y3836923D01*
G37*
G36*
X7646924Y3836923D02*
G01*
X7646924Y4037076D01*
X7847075Y4037076D01*
X7847075Y3836923D01*
G37*
G36*
X6122924Y3836923D02*
G01*
X6122924Y4037076D01*
X6323075Y4037076D01*
X6323075Y3836923D01*
G37*
G36*
X7138924Y3836923D02*
G01*
X7138924Y4037076D01*
X7339075Y4037076D01*
X7339075Y3836923D01*
G37*
G36*
X6122924Y2820923D02*
G01*
X6122924Y3021076D01*
X6323075Y3021076D01*
X6323075Y2820923D01*
G37*
G36*
X7138924Y2820923D02*
G01*
X7138924Y3021076D01*
X7339075Y3021076D01*
X7339075Y2820923D01*
G37*
G36*
X8916924Y2820923D02*
G01*
X8916924Y3021076D01*
X9117075Y3021076D01*
X9117075Y2820923D01*
G37*
G36*
X8916924Y3074923D02*
G01*
X8916924Y3275076D01*
X9117075Y3275076D01*
X9117075Y3074923D01*
G37*
G36*
X8662924Y2820923D02*
G01*
X8662924Y3021076D01*
X8863075Y3021076D01*
X8863075Y2820923D01*
G37*
G36*
X7900924Y2820923D02*
G01*
X7900924Y3021076D01*
X8101075Y3021076D01*
X8101075Y2820923D01*
G37*
G36*
X5614924Y3582923D02*
G01*
X5614924Y3783076D01*
X5815075Y3783076D01*
X5815075Y3582923D01*
G37*
G36*
X5614924Y3328923D02*
G01*
X5614924Y3529076D01*
X5815075Y3529076D01*
X5815075Y3328923D01*
G37*
G36*
X5614924Y3074923D02*
G01*
X5614924Y3275076D01*
X5815075Y3275076D01*
X5815075Y3074923D01*
G37*
G36*
X5614924Y2312923D02*
G01*
X5614924Y2513076D01*
X5815075Y2513076D01*
X5815075Y2312923D01*
G37*
G36*
X5614924Y2058923D02*
G01*
X5614924Y2259076D01*
X5815075Y2259076D01*
X5815075Y2058923D01*
G37*
G36*
X6376924Y1296923D02*
G01*
X6376924Y1497076D01*
X6577075Y1497076D01*
X6577075Y1296923D01*
G37*
G36*
X6630924Y1284223D02*
G01*
X6630924Y1484376D01*
X6831075Y1484376D01*
X6831075Y1284223D01*
G37*
G36*
X6897624Y1284223D02*
G01*
X6897624Y1484376D01*
X7097775Y1484376D01*
X7097775Y1284223D01*
G37*
G36*
X7138924Y1296923D02*
G01*
X7138924Y1497076D01*
X7339075Y1497076D01*
X7339075Y1296923D01*
G37*
G36*
X7392924Y1296923D02*
G01*
X7392924Y1497076D01*
X7593075Y1497076D01*
X7593075Y1296923D01*
G37*
G36*
X7646924Y1296923D02*
G01*
X7646924Y1497076D01*
X7847075Y1497076D01*
X7847075Y1296923D01*
G37*
G36*
X7900924Y1296923D02*
G01*
X7900924Y1497076D01*
X8101075Y1497076D01*
X8101075Y1296923D01*
G37*
G36*
X8154924Y1296923D02*
G01*
X8154924Y1497076D01*
X8355075Y1497076D01*
X8355075Y1296923D01*
G37*
G36*
X8408924Y1296923D02*
G01*
X8408924Y1497076D01*
X8609075Y1497076D01*
X8609075Y1296923D01*
G37*
G36*
X8408924Y534923D02*
G01*
X8408924Y735076D01*
X8609075Y735076D01*
X8609075Y534923D01*
G37*
G36*
X8154924Y534923D02*
G01*
X8154924Y735076D01*
X8355075Y735076D01*
X8355075Y534923D01*
G37*
G36*
X7900924Y522223D02*
G01*
X7900924Y722376D01*
X8101075Y722376D01*
X8101075Y522223D01*
G37*
G36*
X7646924Y534923D02*
G01*
X7646924Y735076D01*
X7847075Y735076D01*
X7847075Y534923D01*
G37*
G36*
X7392924Y534923D02*
G01*
X7392924Y735076D01*
X7593075Y735076D01*
X7593075Y534923D01*
G37*
G36*
X7138924Y534923D02*
G01*
X7138924Y735076D01*
X7339075Y735076D01*
X7339075Y534923D01*
G37*
G36*
X6884924Y534923D02*
G01*
X6884924Y735076D01*
X7085075Y735076D01*
X7085075Y534923D01*
G37*
G36*
X6630924Y534923D02*
G01*
X6630924Y735076D01*
X6831075Y735076D01*
X6831075Y534923D01*
G37*
G36*
X6376924Y534923D02*
G01*
X6376924Y735076D01*
X6577075Y735076D01*
X6577075Y534923D01*
G37*
G36*
X8408924Y26923D02*
G01*
X8408924Y227076D01*
X8609075Y227076D01*
X8609075Y26923D01*
G37*
G36*
X8154924Y26923D02*
G01*
X8154924Y227076D01*
X8355075Y227076D01*
X8355075Y26923D01*
G37*
G36*
X7900924Y26923D02*
G01*
X7900924Y227076D01*
X8101075Y227076D01*
X8101075Y26923D01*
G37*
G36*
X8916924Y26923D02*
G01*
X8916924Y227076D01*
X9117075Y227076D01*
X9117075Y26923D01*
G37*
G36*
X9170924Y26923D02*
G01*
X9170924Y227076D01*
X9371075Y227076D01*
X9371075Y26923D01*
G37*
G36*
X9678924Y3074923D02*
G01*
X9678924Y3275076D01*
X9879075Y3275076D01*
X9879075Y3074923D01*
G37*
G36*
X9424924Y2820923D02*
G01*
X9424924Y3021076D01*
X9625075Y3021076D01*
X9625075Y2820923D01*
G37*
G36*
X7646924Y26923D02*
G01*
X7646924Y227076D01*
X7847075Y227076D01*
X7847075Y26923D01*
G37*
G36*
X7392924Y26923D02*
G01*
X7392924Y227076D01*
X7593075Y227076D01*
X7593075Y26923D01*
G37*
G36*
X7138924Y26923D02*
G01*
X7138924Y227076D01*
X7339075Y227076D01*
X7339075Y26923D01*
G37*
G36*
X5614924Y890523D02*
G01*
X5614924Y1090676D01*
X5815075Y1090676D01*
X5815075Y890523D01*
G37*
G36*
X5614924Y1131823D02*
G01*
X5614924Y1331976D01*
X5815075Y1331976D01*
X5815075Y1131823D01*
G37*
M02*
